<svg xmlns="http://www.w3.org/2000/svg" xmlns:xlink="http://www.w3.org/1999/xlink" width="500" zoomAndPan="magnify" viewBox="0 0 375 374.999991" height="500" preserveAspectRatio="xMidYMid meet" version="1.0"><defs><clipPath id="98df789310"><path d="M 15.496094 94 L 250 94 L 250 200 L 15.496094 200 Z M 15.496094 94 " clip-rule="nonzero"/></clipPath><clipPath id="f847d5155e"><path d="M 100 269 L 165 269 L 165 349.066406 L 100 349.066406 Z M 100 269 " clip-rule="nonzero"/></clipPath><clipPath id="2fee86cfa3"><path d="M 37 188 L 228 188 L 228 349.066406 L 37 349.066406 Z M 37 188 " clip-rule="nonzero"/></clipPath><clipPath id="55ec7fe13e"><path d="M 114 25.816406 L 340 25.816406 L 340 86 L 114 86 Z M 114 25.816406 " clip-rule="nonzero"/></clipPath><clipPath id="bf51b9e198"><path d="M 274 25.816406 L 340 25.816406 L 340 307 L 274 307 Z M 274 25.816406 " clip-rule="nonzero"/></clipPath><clipPath id="0a952330c0"><path d="M 254 295 L 359.746094 295 L 359.746094 339 L 254 339 Z M 254 295 " clip-rule="nonzero"/></clipPath></defs><g clip-path="url(#98df789310)"><path fill="#ffffff" d="M 243.90625 199.320312 L 21.113281 199.320312 C 18.78125 199.320312 16.664062 197.863281 15.859375 195.671875 C 15.058594 193.484375 15.714844 191.003906 17.539062 189.46875 L 128.972656 95.625 C 131.089844 93.871094 134.082031 93.871094 136.195312 95.625 L 247.628906 189.46875 C 249.453125 191.003906 250.109375 193.484375 249.308594 195.671875 C 248.359375 197.863281 246.316406 199.320312 243.90625 199.320312 Z M 36.441406 188.15625 L 228.582031 188.15625 L 132.546875 107.226562 Z M 36.441406 188.15625 " fill-opacity="1" fill-rule="nonzero"/></g><path fill="#ffffff" d="M 132.546875 173.195312 C 118.828125 173.195312 107.664062 162.03125 107.664062 148.3125 C 107.664062 134.59375 118.828125 123.429688 132.546875 123.429688 C 146.265625 123.429688 157.433594 134.59375 157.433594 148.3125 C 157.359375 162.03125 146.265625 173.195312 132.546875 173.195312 Z M 132.546875 134.667969 C 125.03125 134.667969 118.902344 140.796875 118.902344 148.3125 C 118.902344 155.828125 125.03125 161.957031 132.546875 161.957031 C 140.0625 161.957031 146.195312 155.828125 146.195312 148.3125 C 146.195312 140.796875 140.0625 134.667969 132.546875 134.667969 Z M 132.546875 134.667969 " fill-opacity="1" fill-rule="nonzero"/><path fill="#ffffff" d="M 211.652344 172.101562 C 208.585938 172.101562 206.035156 169.621094 206.035156 166.484375 L 206.035156 116.566406 L 184.945312 116.566406 L 184.945312 139.335938 C 184.945312 142.402344 182.460938 144.957031 179.324219 144.957031 C 176.1875 144.957031 173.707031 142.472656 173.707031 139.335938 L 173.707031 111.023438 C 173.707031 107.957031 176.1875 105.402344 179.324219 105.402344 L 211.652344 105.402344 C 214.71875 105.402344 217.273438 107.882812 217.273438 111.023438 L 217.273438 166.554688 C 217.199219 169.621094 214.71875 172.101562 211.652344 172.101562 Z M 211.652344 172.101562 " fill-opacity="1" fill-rule="nonzero"/><g clip-path="url(#f847d5155e)"><path fill="#ffffff" d="M 159.257812 349.140625 C 156.191406 349.140625 153.636719 346.660156 153.636719 343.519531 L 153.636719 280.46875 L 111.3125 280.46875 L 111.3125 343.519531 C 111.3125 346.585938 108.832031 349.140625 105.691406 349.140625 C 102.554688 349.140625 100.074219 346.660156 100.074219 343.519531 L 100.074219 274.851562 C 100.074219 271.785156 102.554688 269.230469 105.691406 269.230469 L 159.183594 269.230469 C 162.25 269.230469 164.804688 271.714844 164.804688 274.851562 L 164.804688 343.519531 C 164.875 346.585938 162.394531 349.140625 159.257812 349.140625 Z M 159.257812 349.140625 " fill-opacity="1" fill-rule="nonzero"/></g><g clip-path="url(#2fee86cfa3)"><path fill="#ffffff" d="M 221.503906 349.140625 L 43.519531 349.140625 C 40.453125 349.140625 37.898438 346.660156 37.898438 343.519531 L 37.898438 193.777344 C 37.898438 190.710938 40.378906 188.15625 43.519531 188.15625 C 46.65625 188.15625 49.136719 190.636719 49.136719 193.777344 L 49.136719 337.902344 L 215.886719 337.902344 L 215.886719 193.777344 C 215.886719 190.710938 218.367188 188.15625 221.503906 188.15625 C 224.640625 188.15625 227.125 190.636719 227.125 193.777344 L 227.125 343.519531 C 227.125 346.585938 224.640625 349.140625 221.503906 349.140625 Z M 221.503906 349.140625 " fill-opacity="1" fill-rule="nonzero"/></g><g clip-path="url(#55ec7fe13e)"><path fill="#ffffff" d="M 280.320312 85.261719 L 148.382812 85.261719 C 146.414062 85.261719 144.515625 84.167969 143.492188 82.488281 L 115.691406 34.324219 C 114.667969 32.574219 114.667969 30.457031 115.691406 28.707031 C 116.710938 26.953125 118.535156 25.933594 120.578125 25.933594 L 333.59375 25.933594 C 336.660156 25.933594 339.214844 28.414062 339.214844 31.550781 C 339.214844 34.691406 336.730469 37.171875 333.59375 37.171875 L 130.285156 37.171875 L 151.59375 74.097656 L 280.320312 74.097656 C 283.386719 74.097656 285.941406 76.578125 285.941406 79.714844 C 285.941406 82.855469 283.386719 85.261719 280.320312 85.261719 Z M 280.320312 85.261719 " fill-opacity="1" fill-rule="nonzero"/></g><g clip-path="url(#bf51b9e198)"><path fill="#ffffff" d="M 333.59375 306.8125 C 330.527344 306.8125 327.976562 304.332031 327.976562 301.195312 L 327.976562 31.480469 C 327.976562 28.414062 330.457031 25.859375 333.59375 25.859375 C 336.730469 25.859375 339.214844 28.339844 339.214844 31.480469 L 339.214844 301.195312 C 339.214844 304.332031 336.660156 306.8125 333.59375 306.8125 Z M 280.320312 306.8125 C 277.257812 306.8125 274.703125 304.332031 274.703125 301.195312 L 274.703125 31.480469 C 274.703125 28.414062 277.183594 25.859375 280.320312 25.859375 C 283.460938 25.859375 285.941406 28.339844 285.941406 31.480469 L 285.941406 301.195312 C 285.941406 304.332031 283.386719 306.8125 280.320312 306.8125 Z M 280.320312 306.8125 " fill-opacity="1" fill-rule="nonzero"/></g><g clip-path="url(#0a952330c0)"><path fill="#ffffff" d="M 353.882812 338.996094 L 260.035156 338.996094 C 256.96875 338.996094 254.414062 336.515625 254.414062 333.375 L 254.414062 301.269531 C 254.414062 298.203125 256.898438 295.648438 260.035156 295.648438 L 353.882812 295.648438 C 356.945312 295.648438 359.5 298.128906 359.5 301.269531 L 359.5 333.375 C 359.5 336.441406 356.945312 338.996094 353.882812 338.996094 Z M 265.582031 327.757812 L 348.261719 327.757812 L 348.261719 306.8125 L 265.582031 306.8125 Z M 265.582031 327.757812 " fill-opacity="1" fill-rule="nonzero"/></g><path fill="#ffffff" d="M 333.59375 91.609375 C 332.425781 91.609375 331.257812 91.246094 330.238281 90.515625 L 276.964844 50.378906 C 274.484375 48.484375 273.972656 44.980469 275.871094 42.5 C 277.769531 40.015625 281.269531 39.507812 283.75 41.402344 L 337.023438 81.539062 C 339.503906 83.4375 340.015625 86.941406 338.117188 89.421875 C 336.949219 90.882812 335.273438 91.609375 333.59375 91.609375 Z M 333.59375 91.609375 " fill-opacity="1" fill-rule="nonzero"/><path fill="#ffffff" d="M 280.320312 91.609375 C 278.644531 91.609375 276.964844 90.808594 275.871094 89.347656 C 273.972656 86.867188 274.484375 83.363281 276.964844 81.46875 L 330.238281 41.332031 C 332.71875 39.433594 336.222656 39.945312 338.117188 42.425781 C 340.015625 44.90625 339.503906 48.410156 337.023438 50.308594 L 283.75 90.441406 C 282.65625 91.246094 281.488281 91.609375 280.320312 91.609375 Z M 280.320312 91.609375 " fill-opacity="1" fill-rule="nonzero"/><path fill="#ffffff" d="M 280.320312 131.820312 C 278.644531 131.820312 276.964844 131.015625 275.871094 129.558594 C 273.972656 127.078125 274.484375 123.574219 276.964844 121.675781 L 330.238281 81.539062 C 332.71875 79.644531 336.222656 80.152344 338.117188 82.636719 C 340.015625 85.117188 339.503906 88.617188 337.023438 90.515625 L 283.75 130.652344 C 282.65625 131.457031 281.488281 131.820312 280.320312 131.820312 Z M 280.320312 131.820312 " fill-opacity="1" fill-rule="nonzero"/><path fill="#ffffff" d="M 333.59375 131.820312 C 332.425781 131.820312 331.257812 131.457031 330.238281 130.726562 L 276.964844 90.589844 C 274.484375 88.691406 273.972656 85.1875 275.871094 82.707031 C 277.769531 80.226562 281.269531 79.714844 283.75 81.613281 L 337.023438 121.75 C 339.503906 123.648438 340.015625 127.148438 338.117188 129.628906 C 336.949219 131.015625 335.273438 131.820312 333.59375 131.820312 Z M 333.59375 131.820312 " fill-opacity="1" fill-rule="nonzero"/><path fill="#ffffff" d="M 333.59375 171.957031 C 332.425781 171.957031 331.257812 171.589844 330.238281 170.863281 L 276.964844 130.726562 C 274.484375 128.828125 273.972656 125.324219 275.871094 122.84375 C 277.769531 120.363281 281.269531 119.851562 283.75 121.75 L 337.023438 161.886719 C 339.503906 163.78125 340.015625 167.285156 338.117188 169.765625 C 336.949219 171.226562 335.273438 171.957031 333.59375 171.957031 Z M 333.59375 171.957031 " fill-opacity="1" fill-rule="nonzero"/><path fill="#ffffff" d="M 280.320312 171.957031 C 278.644531 171.957031 276.964844 171.152344 275.871094 169.695312 C 273.972656 167.210938 274.484375 163.710938 276.964844 161.8125 L 330.238281 121.675781 C 332.71875 119.777344 336.222656 120.289062 338.117188 122.769531 C 340.015625 125.253906 339.503906 128.753906 337.023438 130.652344 L 283.75 170.789062 C 282.65625 171.589844 281.488281 171.957031 280.320312 171.957031 Z M 280.320312 171.957031 " fill-opacity="1" fill-rule="nonzero"/><path fill="#ffffff" d="M 280.320312 212.164062 C 278.644531 212.164062 276.964844 211.363281 275.871094 209.902344 C 273.972656 207.421875 274.484375 203.917969 276.964844 202.023438 L 330.238281 161.886719 C 332.71875 159.988281 336.222656 160.5 338.117188 162.980469 C 340.015625 165.460938 339.503906 168.964844 337.023438 170.863281 L 283.75 210.996094 C 282.65625 211.800781 281.488281 212.164062 280.320312 212.164062 Z M 280.320312 212.164062 " fill-opacity="1" fill-rule="nonzero"/><path fill="#ffffff" d="M 333.59375 212.164062 C 332.425781 212.164062 331.257812 211.800781 330.238281 211.070312 L 276.964844 170.933594 C 274.484375 169.039062 273.972656 165.535156 275.871094 163.054688 C 277.769531 160.570312 281.269531 160.0625 283.75 161.957031 L 337.023438 202.09375 C 339.503906 203.992188 340.015625 207.496094 338.117188 209.976562 C 336.949219 211.363281 335.273438 212.164062 333.59375 212.164062 Z M 333.59375 212.164062 " fill-opacity="1" fill-rule="nonzero"/><path fill="#ffffff" d="M 333.59375 252.300781 C 332.425781 252.300781 331.257812 251.9375 330.238281 251.207031 L 276.964844 211.070312 C 274.484375 209.171875 273.972656 205.671875 275.871094 203.191406 C 277.769531 200.707031 281.269531 200.199219 283.75 202.09375 L 337.023438 242.230469 C 339.503906 244.128906 340.015625 247.632812 338.117188 250.113281 C 336.949219 251.570312 335.273438 252.300781 333.59375 252.300781 Z M 333.59375 252.300781 " fill-opacity="1" fill-rule="nonzero"/><path fill="#ffffff" d="M 280.320312 252.300781 C 278.644531 252.300781 276.964844 251.5 275.871094 250.039062 C 273.972656 247.558594 274.484375 244.054688 276.964844 242.15625 L 330.238281 202.023438 C 332.71875 200.125 336.222656 200.636719 338.117188 203.117188 C 340.015625 205.597656 339.503906 209.101562 337.023438 210.996094 L 283.75 251.132812 C 282.65625 251.9375 281.488281 252.300781 280.320312 252.300781 Z M 280.320312 252.300781 " fill-opacity="1" fill-rule="nonzero"/><path fill="#ffffff" d="M 280.320312 292.511719 C 278.644531 292.511719 276.964844 291.707031 275.871094 290.25 C 273.972656 287.765625 274.484375 284.265625 276.964844 282.367188 L 330.238281 242.230469 C 332.71875 240.332031 336.222656 240.84375 338.117188 243.324219 C 340.015625 245.808594 339.503906 249.308594 337.023438 251.207031 L 283.75 291.34375 C 282.65625 292.074219 281.488281 292.511719 280.320312 292.511719 Z M 280.320312 292.511719 " fill-opacity="1" fill-rule="nonzero"/><path fill="#ffffff" d="M 333.59375 292.511719 C 332.425781 292.511719 331.257812 292.144531 330.238281 291.417969 L 276.964844 251.28125 C 274.484375 249.382812 273.972656 245.878906 275.871094 243.398438 C 277.769531 240.917969 281.269531 240.40625 283.75 242.304688 L 337.023438 282.441406 C 339.503906 284.335938 340.015625 287.839844 338.117188 290.320312 C 336.949219 291.707031 335.273438 292.511719 333.59375 292.511719 Z M 333.59375 292.511719 " fill-opacity="1" fill-rule="nonzero"/><path fill="#ffffff" d="M 67.164062 113.136719 C 64.097656 113.136719 61.542969 110.65625 61.542969 107.519531 L 61.542969 79.644531 C 61.542969 77.308594 63.003906 75.191406 65.265625 74.390625 L 132.546875 50.308594 C 135.46875 49.285156 138.679688 50.816406 139.699219 53.664062 C 140.722656 56.582031 139.1875 59.792969 136.34375 60.816406 L 72.78125 83.582031 L 72.78125 107.519531 C 72.78125 110.65625 70.300781 113.136719 67.164062 113.136719 Z M 67.164062 113.136719 " fill-opacity="1" fill-rule="nonzero"/></svg>