<svg xmlns="http://www.w3.org/2000/svg" xmlns:xlink="http://www.w3.org/1999/xlink" width="500" zoomAndPan="magnify" viewBox="0 0 375 374.999991" height="500" preserveAspectRatio="xMidYMid meet" version="1.0"><defs><clipPath id="b59a7bf60c"><path d="M 14.742188 125 L 182 125 L 182 348 L 14.742188 348 Z M 14.742188 125 " clip-rule="nonzero"/></clipPath><clipPath id="7208c89177"><path d="M 193 125 L 360.492188 125 L 360.492188 348 L 193 348 Z M 193 125 " clip-rule="nonzero"/></clipPath><clipPath id="4d6189e0ee"><path d="M 48 27.050781 L 327 27.050781 L 327 125 L 48 125 Z M 48 27.050781 " clip-rule="nonzero"/></clipPath></defs><g clip-path="url(#b59a7bf60c)"><path fill="#ffffff" d="M 163.34375 310.3125 C 166.242188 310.691406 169.082031 311.328125 171.867188 312.222656 C 172.546875 312.492188 173.203125 312.808594 173.835938 313.179688 C 174.46875 313.546875 175.070312 313.960938 175.644531 314.417969 C 176.214844 314.878906 176.746094 315.378906 177.242188 315.917969 C 177.738281 316.457031 178.1875 317.03125 178.597656 317.636719 C 179.007812 318.246094 179.367188 318.878906 179.679688 319.542969 C 179.996094 320.203125 180.257812 320.882812 180.46875 321.585938 C 180.675781 322.289062 180.835938 323 180.9375 323.726562 C 181.039062 324.449219 181.089844 325.179688 181.082031 325.910156 C 181.308594 330.957031 181.1875 336.023438 181.121094 341.078125 C 181.15625 341.496094 181.144531 341.910156 181.089844 342.324219 C 181.039062 342.738281 180.941406 343.144531 180.804688 343.539062 C 180.667969 343.933594 180.492188 344.308594 180.28125 344.667969 C 180.066406 345.027344 179.816406 345.359375 179.53125 345.664062 C 179.25 345.972656 178.9375 346.246094 178.597656 346.488281 C 178.257812 346.730469 177.894531 346.9375 177.511719 347.105469 C 177.128906 347.273438 176.734375 347.398438 176.324219 347.484375 C 175.917969 347.570312 175.503906 347.613281 175.085938 347.613281 C 174.667969 347.613281 174.253906 347.570312 173.847656 347.488281 C 173.4375 347.402344 173.039062 347.277344 172.65625 347.109375 C 172.273438 346.941406 171.914062 346.738281 171.574219 346.496094 C 171.230469 346.253906 170.917969 345.980469 170.636719 345.671875 C 170.351562 345.367188 170.101562 345.035156 169.886719 344.675781 C 169.671875 344.320312 169.496094 343.941406 169.355469 343.546875 C 169.21875 343.152344 169.125 342.75 169.070312 342.335938 C 169.015625 341.921875 169.003906 341.507812 169.039062 341.089844 C 168.972656 336.375 169.039062 331.660156 169.011719 326.953125 C 168.992188 324 167.949219 322.964844 164.957031 322.960938 C 134.703125 322.949219 104.449219 322.949219 74.195312 322.960938 C 71.0625 322.960938 70.074219 323.980469 70.058594 327.132812 C 70.035156 331.589844 70.070312 336.046875 70.046875 340.503906 C 70.027344 344.753906 67.507812 347.671875 63.9375 347.625 C 60.371094 347.582031 57.949219 344.675781 57.9375 340.390625 C 57.921875 335.675781 57.859375 330.960938 57.953125 326.257812 C 57.953125 325.246094 58.050781 324.246094 58.25 323.253906 C 58.449219 322.261719 58.738281 321.300781 59.125 320.363281 C 59.515625 319.429688 59.988281 318.542969 60.550781 317.703125 C 61.109375 316.863281 61.75 316.085938 62.464844 315.371094 C 63.175781 314.652344 63.953125 314.015625 64.792969 313.453125 C 65.636719 312.890625 66.523438 312.414062 67.457031 312.027344 C 68.386719 311.640625 69.351562 311.347656 70.34375 311.148438 C 71.332031 310.949219 72.335938 310.847656 73.34375 310.847656 C 74.449219 310.820312 75.554688 310.847656 77.359375 310.847656 C 75.933594 308.105469 74.90625 305.703125 73.515625 303.53125 C 68.394531 295.515625 61.492188 289.0625 54.832031 282.394531 C 45.636719 273.160156 36.433594 263.929688 27.355469 254.59375 C 25.328125 252.542969 23.527344 250.316406 21.945312 247.90625 C 20.363281 245.496094 19.03125 242.957031 17.953125 240.285156 C 16.878906 237.609375 16.074219 234.859375 15.539062 232.027344 C 15.007812 229.195312 14.761719 226.335938 14.796875 223.453125 C 14.664062 198.257812 14.707031 173.058594 14.746094 147.863281 C 14.765625 135.945312 22.988281 126.761719 34.792969 125.820312 C 36.511719 125.667969 38.222656 125.730469 39.925781 126.011719 C 41.628906 126.292969 43.273438 126.777344 44.855469 127.472656 C 46.433594 128.167969 47.902344 129.046875 49.261719 130.113281 C 50.621094 131.179688 51.824219 132.394531 52.878906 133.765625 C 53.660156 134.707031 54.203125 135.382812 55.78125 135.042969 C 70.0625 131.984375 82.308594 141.910156 82.382812 156.554688 C 82.445312 169.496094 82.4375 182.4375 82.351562 195.378906 C 82.3125 195.773438 82.328125 196.167969 82.40625 196.554688 C 82.480469 196.945312 82.609375 197.316406 82.792969 197.667969 C 82.976562 198.019531 83.210938 198.335938 83.488281 198.621094 C 83.765625 198.90625 84.078125 199.140625 84.425781 199.332031 C 86.050781 200.460938 87.535156 201.742188 88.886719 203.1875 C 98.664062 212.917969 108.394531 222.703125 118.195312 232.414062 C 119.164062 233.386719 120.292969 234.097656 121.585938 234.546875 C 123.007812 234.996094 124.410156 235.496094 125.792969 236.046875 C 127.175781 236.601562 128.535156 237.203125 129.875 237.855469 C 131.210938 238.511719 132.523438 239.210938 133.8125 239.960938 C 135.097656 240.710938 136.355469 241.507812 137.582031 242.351562 C 138.808594 243.195312 140.003906 244.082031 141.164062 245.015625 C 142.328125 245.945312 143.453125 246.917969 144.542969 247.933594 C 145.632812 248.949219 146.683594 250.003906 147.695312 251.09375 C 148.707031 252.1875 149.679688 253.316406 150.605469 254.480469 C 151.535156 255.644531 152.417969 256.84375 153.257812 258.070312 C 154.097656 259.300781 154.890625 260.5625 155.640625 261.847656 C 156.386719 263.136719 157.082031 264.453125 157.734375 265.792969 C 158.382812 267.132812 158.980469 268.496094 159.53125 269.878906 C 160.078125 271.261719 160.578125 272.664062 161.019531 274.085938 C 161.464844 275.507812 161.859375 276.945312 162.195312 278.394531 C 162.535156 279.84375 162.820312 281.304688 163.050781 282.777344 C 163.28125 284.246094 163.457031 285.726562 163.578125 287.210938 C 164.113281 294.335938 163.457031 301.550781 163.347656 308.722656 C 163.339844 309.304688 163.34375 309.890625 163.34375 310.3125 Z M 151.007812 310.828125 C 151.445312 308.199219 151.742188 305.554688 151.898438 302.898438 C 152.097656 297.761719 151.972656 292.636719 151.527344 287.519531 C 149.183594 267.65625 138.351562 254.042969 119.871094 246.851562 C 117.488281 246.058594 115.246094 244.972656 113.144531 243.597656 C 111.042969 242.222656 109.152344 240.601562 107.472656 238.734375 C 107.195312 238.410156 106.871094 238.125 106.566406 237.824219 C 97.414062 228.683594 88.296875 219.5 79.089844 210.414062 C 78.636719 209.953125 78.152344 209.53125 77.636719 209.144531 C 77.117188 208.757812 76.574219 208.414062 76.003906 208.117188 C 75.429688 207.816406 74.839844 207.5625 74.226562 207.359375 C 73.617188 207.152344 72.992188 206.996094 72.355469 206.886719 C 71.71875 206.78125 71.078125 206.726562 70.433594 206.71875 C 69.785156 206.714844 69.144531 206.757812 68.507812 206.855469 C 67.867188 206.949219 67.242188 207.09375 66.625 207.289062 C 66.011719 207.484375 65.414062 207.726562 64.839844 208.015625 C 63.710938 208.554688 62.6875 209.25 61.765625 210.097656 C 60.847656 210.945312 60.070312 211.90625 59.4375 212.984375 C 58.804688 214.066406 58.347656 215.210938 58.058594 216.429688 C 57.769531 217.644531 57.664062 218.878906 57.746094 220.125 C 57.855469 221.8125 58.277344 223.414062 59.007812 224.9375 C 59.738281 226.460938 60.726562 227.789062 61.96875 228.929688 C 72.65625 239.570312 83.324219 250.226562 93.976562 260.902344 C 96.03125 262.949219 97.085938 265.234375 95.964844 268.066406 C 94.277344 272.339844 89.210938 273.097656 85.660156 269.5625 C 75.089844 259.050781 64.644531 248.414062 53.996094 237.984375 C 52.617188 236.664062 51.386719 235.21875 50.308594 233.640625 C 49.230469 232.066406 48.332031 230.394531 47.605469 228.628906 C 46.878906 226.863281 46.34375 225.039062 46 223.160156 C 45.660156 221.285156 45.515625 219.390625 45.570312 217.480469 C 45.617188 194.175781 45.617188 170.867188 45.570312 147.5625 C 45.597656 146.929688 45.558594 146.300781 45.457031 145.675781 C 45.355469 145.054688 45.195312 144.445312 44.96875 143.855469 C 44.746094 143.265625 44.464844 142.703125 44.128906 142.167969 C 43.789062 141.632812 43.402344 141.136719 42.964844 140.683594 C 42.527344 140.226562 42.046875 139.820312 41.527344 139.460938 C 41.007812 139.101562 40.457031 138.796875 39.875 138.550781 C 39.292969 138.304688 38.691406 138.117188 38.070312 137.992188 C 37.453125 137.867188 36.828125 137.804688 36.195312 137.804688 C 35.5625 137.808594 34.9375 137.871094 34.316406 138 C 33.699219 138.125 33.097656 138.316406 32.519531 138.5625 C 31.9375 138.8125 31.386719 139.117188 30.867188 139.480469 C 30.347656 139.839844 29.871094 140.246094 29.433594 140.707031 C 29 141.164062 28.613281 141.660156 28.277344 142.195312 C 27.941406 142.730469 27.660156 143.292969 27.441406 143.886719 C 27.21875 144.476562 27.058594 145.085938 26.957031 145.710938 C 26.859375 146.332031 26.824219 146.960938 26.851562 147.59375 C 26.835938 173.128906 26.84375 198.664062 26.871094 224.199219 C 26.921875 228.980469 27.988281 233.527344 30.074219 237.832031 C 32.523438 243.078125 36.574219 247.042969 40.539062 251.066406 C 51.785156 262.472656 63.191406 273.722656 74.332031 285.234375 C 80.742188 291.855469 86.261719 299.214844 88.847656 308.257812 C 89.453125 310.371094 90.261719 310.878906 92.304688 310.867188 C 110.902344 310.792969 129.496094 310.824219 148.089844 310.824219 Z M 70.214844 194.183594 C 70.214844 181.070312 70.371094 167.808594 70.128906 154.535156 C 70.042969 149.878906 65.476562 146.394531 60.765625 146.390625 C 58.578125 146.390625 57.628906 146.996094 57.648438 149.492188 C 57.773438 164.832031 57.707031 180.171875 57.71875 195.511719 C 57.71875 196.238281 57.816406 196.960938 57.863281 197.519531 Z M 70.214844 194.183594 " fill-opacity="1" fill-rule="nonzero"/></g><g clip-path="url(#7208c89177)"><path fill="#ffffff" d="M 297.878906 310.597656 C 300.257812 310.820312 302.324219 310.84375 304.320312 311.234375 C 305.191406 311.378906 306.039062 311.597656 306.871094 311.890625 C 307.703125 312.183594 308.5 312.546875 309.265625 312.984375 C 310.035156 313.417969 310.757812 313.914062 311.433594 314.476562 C 312.113281 315.039062 312.738281 315.65625 313.308594 316.324219 C 313.878906 316.996094 314.386719 317.714844 314.832031 318.472656 C 315.277344 319.234375 315.652344 320.027344 315.957031 320.855469 C 316.261719 321.679688 316.492188 322.527344 316.648438 323.394531 C 316.804688 324.261719 316.882812 325.136719 316.886719 326.019531 C 317.015625 331.070312 316.972656 336.128906 316.898438 341.1875 C 316.921875 341.597656 316.90625 342.007812 316.847656 342.414062 C 316.789062 342.820312 316.691406 343.21875 316.554688 343.605469 C 316.414062 343.996094 316.238281 344.363281 316.023438 344.714844 C 315.808594 345.066406 315.558594 345.394531 315.277344 345.695312 C 314.996094 345.996094 314.6875 346.261719 314.351562 346.5 C 314.015625 346.738281 313.65625 346.941406 313.28125 347.105469 C 312.902344 347.269531 312.511719 347.394531 312.109375 347.480469 C 311.707031 347.5625 311.300781 347.609375 310.886719 347.609375 C 310.476562 347.609375 310.066406 347.570312 309.664062 347.488281 C 309.261719 347.410156 308.871094 347.285156 308.492188 347.125 C 308.113281 346.964844 307.753906 346.765625 307.414062 346.53125 C 307.078125 346.296875 306.765625 346.03125 306.480469 345.730469 C 306.199219 345.433594 305.945312 345.109375 305.730469 344.761719 C 305.511719 344.410156 305.332031 344.042969 305.1875 343.65625 C 305.046875 343.269531 304.945312 342.871094 304.882812 342.464844 C 304.820312 342.058594 304.800781 341.648438 304.824219 341.238281 C 304.738281 336.527344 304.824219 331.8125 304.792969 327.101562 C 304.773438 323.96875 303.773438 322.960938 300.628906 322.960938 C 270.457031 322.949219 240.289062 322.949219 210.121094 322.960938 C 206.820312 322.960938 205.851562 323.941406 205.835938 327.242188 C 205.820312 331.699219 205.851562 336.15625 205.824219 340.613281 C 205.800781 344.71875 203.367188 347.550781 199.867188 347.628906 C 196.316406 347.707031 193.734375 344.757812 193.714844 340.542969 C 193.695312 335.742188 193.625 330.941406 193.734375 326.144531 C 193.742188 325.15625 193.84375 324.175781 194.039062 323.207031 C 194.234375 322.238281 194.519531 321.296875 194.898438 320.378906 C 195.273438 319.464844 195.734375 318.597656 196.28125 317.769531 C 196.824219 316.945312 197.445312 316.179688 198.136719 315.472656 C 198.828125 314.765625 199.582031 314.132812 200.394531 313.570312 C 201.210938 313.007812 202.070312 312.53125 202.976562 312.132812 C 203.882812 311.738281 204.816406 311.433594 205.785156 311.21875 C 206.75 311 207.726562 310.878906 208.714844 310.851562 C 209.558594 310.8125 210.402344 310.851562 211.605469 310.851562 C 211.375 308.277344 211.152344 305.9375 210.960938 303.59375 C 209.761719 288.929688 211.691406 274.847656 219.175781 261.929688 C 226.898438 248.609375 238.410156 239.878906 252.789062 234.691406 C 254.316406 234.152344 255.667969 233.324219 256.84375 232.210938 C 266.609375 222.578125 276.265625 212.851562 285.980469 203.171875 C 287.175781 201.820312 288.527344 200.640625 290.03125 199.636719 C 290.457031 199.414062 290.84375 199.132812 291.183594 198.789062 C 291.523438 198.445312 291.804688 198.0625 292.027344 197.632812 C 292.25 197.203125 292.402344 196.75 292.484375 196.273438 C 292.566406 195.796875 292.574219 195.320312 292.507812 194.839844 C 292.410156 181.984375 292.402344 169.128906 292.476562 156.273438 C 292.449219 155.003906 292.53125 153.746094 292.726562 152.492188 C 292.921875 151.238281 293.230469 150.011719 293.644531 148.816406 C 294.058594 147.617188 294.578125 146.464844 295.199219 145.359375 C 295.820312 144.253906 296.535156 143.210938 297.34375 142.234375 C 298.152344 141.257812 299.039062 140.359375 300.007812 139.539062 C 300.976562 138.722656 302.011719 137.996094 303.109375 137.363281 C 304.210938 136.726562 305.355469 136.199219 306.550781 135.769531 C 307.742188 135.339844 308.964844 135.019531 310.214844 134.8125 C 313.019531 134.429688 315.816406 134.492188 318.597656 135 C 318.914062 135.085938 319.230469 135.125 319.558594 135.113281 C 319.882812 135.101562 320.199219 135.039062 320.503906 134.929688 C 320.8125 134.820312 321.09375 134.664062 321.351562 134.46875 C 321.613281 134.269531 321.835938 134.039062 322.019531 133.769531 C 322.308594 133.410156 322.605469 133.058594 322.914062 132.71875 C 323.222656 132.378906 323.542969 132.046875 323.875 131.726562 C 324.203125 131.40625 324.546875 131.097656 324.898438 130.800781 C 325.246094 130.503906 325.609375 130.214844 325.976562 129.941406 C 326.347656 129.667969 326.722656 129.402344 327.109375 129.152344 C 327.496094 128.902344 327.890625 128.667969 328.292969 128.441406 C 328.695312 128.21875 329.105469 128.007812 329.519531 127.808594 C 329.933594 127.609375 330.355469 127.425781 330.785156 127.257812 C 331.210938 127.085938 331.644531 126.929688 332.082031 126.789062 C 332.519531 126.644531 332.960938 126.519531 333.410156 126.402344 C 333.855469 126.289062 334.304688 126.191406 334.757812 126.105469 C 335.210938 126.023438 335.664062 125.953125 336.121094 125.898438 C 336.578125 125.84375 337.035156 125.804688 337.496094 125.777344 C 337.957031 125.753906 338.414062 125.746094 338.875 125.75 C 339.335938 125.753906 339.796875 125.773438 340.253906 125.808594 C 340.714844 125.84375 341.171875 125.894531 341.628906 125.957031 C 342.082031 126.023438 342.535156 126.101562 342.988281 126.195312 C 343.4375 126.289062 343.882812 126.398438 344.328125 126.523438 C 344.769531 126.644531 345.210938 126.78125 345.644531 126.933594 C 346.078125 127.085938 346.507812 127.25 346.933594 127.429688 C 347.355469 127.609375 347.773438 127.804688 348.183594 128.011719 C 348.597656 128.21875 349 128.4375 349.398438 128.667969 C 349.796875 128.902344 350.183594 129.148438 350.566406 129.40625 C 350.945312 129.664062 351.316406 129.933594 351.679688 130.21875 C 352.046875 130.5 352.398438 130.792969 352.742188 131.101562 C 353.085938 131.40625 353.421875 131.722656 353.746094 132.050781 C 354.070312 132.375 354.382812 132.714844 354.683594 133.0625 C 354.984375 133.410156 355.277344 133.765625 355.554688 134.132812 C 355.832031 134.5 356.097656 134.875 356.355469 135.257812 C 356.609375 135.640625 356.847656 136.03125 357.078125 136.433594 C 357.308594 136.832031 357.523438 137.238281 357.722656 137.652344 C 357.925781 138.066406 358.117188 138.484375 358.289062 138.910156 C 359.460938 141.792969 360.042969 144.789062 360.039062 147.898438 C 360.167969 173.011719 360.175781 198.121094 360.058594 223.234375 C 360.105469 226.136719 359.863281 229.015625 359.335938 231.871094 C 358.808594 234.726562 358.003906 237.503906 356.925781 240.199219 C 355.84375 242.890625 354.507812 245.453125 352.917969 247.882812 C 351.324219 250.3125 349.511719 252.558594 347.472656 254.625 C 336.9375 265.417969 326.230469 276.046875 315.613281 286.757812 C 309.761719 292.664062 303.941406 298.609375 299.867188 305.976562 C 299.285156 307.019531 298.828125 308.132812 298.339844 309.226562 C 298.171875 309.585938 298.074219 309.988281 297.878906 310.597656 Z M 224.046875 310.828125 L 280.441406 310.828125 C 284.914062 310.828125 284.9375 310.839844 286.464844 306.558594 C 289.617188 297.71875 295.28125 290.515625 301.695312 283.921875 C 313.757812 271.515625 326.03125 259.3125 338.1875 247.003906 C 339.804688 245.398438 341.242188 243.648438 342.496094 241.75 C 343.753906 239.855469 344.804688 237.847656 345.652344 235.734375 C 346.496094 233.621094 347.117188 231.445312 347.515625 229.203125 C 347.914062 226.960938 348.082031 224.703125 348.015625 222.425781 C 347.914062 205.550781 347.992188 188.667969 347.992188 171.785156 C 347.992188 163.648438 348.019531 155.503906 347.984375 147.367188 C 348 146.738281 347.953125 146.113281 347.84375 145.496094 C 347.734375 144.878906 347.5625 144.277344 347.332031 143.691406 C 347.101562 143.105469 346.816406 142.550781 346.472656 142.023438 C 346.132812 141.5 345.738281 141.011719 345.300781 140.5625 C 344.859375 140.117188 344.378906 139.714844 343.859375 139.363281 C 343.335938 139.015625 342.785156 138.71875 342.207031 138.476562 C 341.625 138.238281 341.027344 138.058594 340.410156 137.9375 C 339.792969 137.820312 339.171875 137.761719 338.542969 137.765625 C 337.914062 137.773438 337.292969 137.839844 336.679688 137.972656 C 336.066406 138.101562 335.46875 138.292969 334.894531 138.542969 C 334.316406 138.792969 333.773438 139.097656 333.257812 139.457031 C 332.742188 139.820312 332.269531 140.226562 331.835938 140.683594 C 331.40625 141.136719 331.023438 141.632812 330.6875 142.164062 C 330.355469 142.695312 330.078125 143.257812 329.859375 143.84375 C 329.636719 144.433594 329.480469 145.039062 329.378906 145.660156 C 329.28125 146.277344 329.246094 146.902344 329.273438 147.53125 C 329.238281 171.007812 329.234375 194.488281 329.257812 217.964844 C 329.3125 219.792969 329.175781 221.601562 328.851562 223.398438 C 328.523438 225.195312 328.015625 226.941406 327.320312 228.628906 C 326.628906 230.320312 325.769531 231.917969 324.738281 233.425781 C 323.710938 234.9375 322.535156 236.320312 321.214844 237.582031 C 317.335938 241.332031 313.578125 245.210938 309.761719 249.027344 C 302.789062 255.988281 295.8125 262.945312 288.832031 269.894531 C 288.386719 270.398438 287.871094 270.8125 287.28125 271.140625 C 286.695312 271.464844 286.066406 271.683594 285.402344 271.796875 C 284.742188 271.90625 284.078125 271.902344 283.414062 271.785156 C 282.753906 271.664062 282.128906 271.441406 281.546875 271.105469 C 280.980469 270.828125 280.480469 270.464844 280.039062 270.015625 C 279.597656 269.566406 279.246094 269.058594 278.976562 268.488281 C 278.710938 267.917969 278.546875 267.324219 278.484375 266.695312 C 278.417969 266.070312 278.460938 265.453125 278.609375 264.839844 C 279.144531 263.210938 280.027344 261.796875 281.253906 260.597656 C 291.796875 249.9375 302.441406 239.378906 313.019531 228.746094 C 318.121094 223.621094 318.511719 216.171875 314.085938 211.121094 C 313.800781 210.789062 313.496094 210.46875 313.179688 210.164062 C 312.859375 209.859375 312.523438 209.574219 312.175781 209.308594 C 311.828125 209.039062 311.464844 208.789062 311.089844 208.5625 C 310.710938 208.332031 310.324219 208.121094 309.929688 207.933594 C 309.53125 207.746094 309.125 207.578125 308.707031 207.433594 C 308.292969 207.285156 307.871094 207.164062 307.441406 207.0625 C 307.015625 206.960938 306.582031 206.882812 306.144531 206.828125 C 305.707031 206.773438 305.269531 206.738281 304.828125 206.730469 C 304.390625 206.722656 303.949219 206.738281 303.511719 206.773438 C 303.074219 206.8125 302.636719 206.871094 302.203125 206.957031 C 301.773438 207.039062 301.347656 207.148438 300.925781 207.273438 C 300.503906 207.402344 300.089844 207.554688 299.6875 207.726562 C 299.28125 207.898438 298.886719 208.09375 298.5 208.308594 C 298.117188 208.523438 297.746094 208.757812 297.386719 209.011719 C 297.027344 209.261719 296.679688 209.535156 296.347656 209.824219 C 296.019531 210.117188 295.703125 210.421875 295.40625 210.746094 C 284.75 221.296875 274.210938 231.960938 263.535156 242.488281 C 262.125 243.707031 260.550781 244.65625 258.816406 245.339844 C 255.09375 247.054688 251.09375 248.253906 247.566406 250.28125 C 224.84375 263.320312 219.820312 286.820312 224.042969 310.828125 Z M 316.96875 197.527344 C 317.046875 197.265625 317.097656 196.996094 317.113281 196.722656 C 317.125 180.691406 317.113281 164.664062 317.15625 148.644531 C 317.15625 147.035156 316.429688 146.601562 315.023438 146.449219 C 314.363281 146.371094 313.699219 146.367188 313.039062 146.433594 C 312.375 146.496094 311.726562 146.632812 311.089844 146.835938 C 310.457031 147.039062 309.851562 147.304688 309.273438 147.640625 C 308.695312 147.972656 308.160156 148.363281 307.667969 148.808594 C 307.171875 149.253906 306.730469 149.75 306.34375 150.289062 C 305.953125 150.832031 305.625 151.40625 305.359375 152.019531 C 305.09375 152.628906 304.898438 153.261719 304.765625 153.914062 C 304.632812 154.570312 304.574219 155.226562 304.582031 155.894531 C 304.527344 166.691406 304.566406 177.492188 304.566406 188.289062 L 304.566406 194.15625 Z M 316.96875 197.527344 " fill-opacity="1" fill-rule="nonzero"/></g><g clip-path="url(#4d6189e0ee)"><path fill="#ffffff" d="M 249.253906 54.117188 C 249.253906 51.109375 249.230469 48.546875 249.253906 45.984375 C 249.332031 38.429688 254.503906 33.1875 262.007812 33.117188 C 267.835938 33.066406 273.664062 33.066406 279.488281 33.117188 C 280.328125 33.09375 281.160156 33.152344 281.988281 33.300781 C 282.8125 33.445312 283.617188 33.671875 284.398438 33.980469 C 285.179688 34.289062 285.921875 34.671875 286.625 35.132812 C 287.324219 35.59375 287.972656 36.117188 288.570312 36.710938 C 289.164062 37.304688 289.695312 37.949219 290.15625 38.648438 C 290.621094 39.347656 291.007812 40.089844 291.320312 40.867188 C 291.632812 41.648438 291.863281 42.449219 292.015625 43.277344 C 292.164062 44.101562 292.226562 44.933594 292.207031 45.773438 C 292.277344 54.683594 292.269531 63.597656 292.183594 72.507812 C 292.144531 72.863281 292.164062 73.210938 292.246094 73.558594 C 292.324219 73.90625 292.464844 74.226562 292.65625 74.523438 C 292.851562 74.824219 293.085938 75.082031 293.371094 75.296875 C 293.652344 75.511719 293.964844 75.675781 294.304688 75.78125 C 302.527344 79.605469 310.734375 83.480469 318.871094 87.492188 C 326.246094 91.132812 328.582031 97.816406 325.203125 105.328125 C 323.308594 109.542969 321.3125 113.710938 319.214844 117.832031 C 318.851562 118.578125 318.421875 119.28125 317.921875 119.941406 C 317.417969 120.601562 316.859375 121.207031 316.238281 121.753906 C 315.617188 122.304688 314.949219 122.785156 314.230469 123.203125 C 313.515625 123.617188 312.765625 123.960938 311.980469 124.226562 C 311.195312 124.496094 310.394531 124.683594 309.570312 124.792969 C 308.75 124.898438 307.925781 124.925781 307.097656 124.871094 C 306.273438 124.816406 305.457031 124.679688 304.660156 124.460938 C 303.859375 124.246094 303.089844 123.953125 302.347656 123.582031 C 275.4375 110.824219 248.539062 98.035156 221.65625 85.210938 C 210.761719 80.023438 199.878906 74.804688 188.949219 69.695312 C 187.929688 69.277344 186.910156 69.277344 185.886719 69.695312 C 152.171875 85.683594 118.476562 101.714844 84.800781 117.789062 C 80.78125 119.703125 76.773438 121.636719 72.730469 123.492188 C 71.972656 123.882812 71.1875 124.191406 70.367188 124.421875 C 69.550781 124.652344 68.714844 124.800781 67.867188 124.859375 C 67.019531 124.921875 66.175781 124.898438 65.332031 124.789062 C 64.488281 124.683594 63.664062 124.488281 62.859375 124.214844 C 62.054688 123.9375 61.289062 123.585938 60.554688 123.15625 C 59.820312 122.722656 59.140625 122.222656 58.507812 121.65625 C 57.875 121.085938 57.308594 120.460938 56.800781 119.777344 C 56.296875 119.09375 55.863281 118.367188 55.507812 117.59375 C 53.351562 113.316406 51.253906 108.996094 49.332031 104.609375 C 48.960938 103.855469 48.667969 103.074219 48.457031 102.261719 C 48.246094 101.445312 48.117188 100.621094 48.074219 99.78125 C 48.027344 98.941406 48.070312 98.105469 48.195312 97.277344 C 48.320312 96.445312 48.523438 95.636719 48.8125 94.847656 C 49.101562 94.058594 49.46875 93.304688 49.910156 92.589844 C 50.351562 91.875 50.859375 91.210938 51.433594 90.597656 C 52.007812 89.988281 52.640625 89.4375 53.328125 88.953125 C 54.015625 88.46875 54.742188 88.058594 55.511719 87.722656 C 78.972656 76.472656 102.457031 65.277344 125.964844 54.128906 C 142.808594 46.101562 159.714844 38.203125 176.464844 29.988281 C 178.144531 29.085938 179.90625 28.402344 181.753906 27.9375 C 183.601562 27.46875 185.480469 27.234375 187.386719 27.230469 C 189.292969 27.226562 191.171875 27.453125 193.019531 27.914062 C 194.871094 28.371094 196.636719 29.050781 198.320312 29.945312 C 214.609375 37.9375 231.046875 45.617188 247.429688 53.421875 C 247.875 53.636719 248.359375 53.777344 249.253906 54.117188 Z M 261.539062 45.371094 C 261.476562 45.644531 261.425781 45.917969 261.394531 46.199219 C 261.382812 51.589844 261.382812 56.996094 261.367188 62.394531 C 261.347656 68.753906 257.210938 71.394531 251.464844 68.660156 C 231.753906 59.289062 212.050781 49.890625 192.363281 40.464844 C 191.609375 40.0625 190.820312 39.757812 189.996094 39.546875 C 189.167969 39.339844 188.328125 39.234375 187.476562 39.230469 C 186.621094 39.226562 185.78125 39.324219 184.953125 39.527344 C 184.125 39.730469 183.332031 40.027344 182.578125 40.425781 C 154.9375 53.660156 127.273438 66.84375 99.585938 79.976562 C 87.066406 85.9375 74.566406 91.945312 62.015625 97.84375 C 60.234375 98.679688 60.027344 99.492188 60.890625 101.15625 C 62.589844 104.417969 64.183594 107.742188 65.648438 111.117188 C 66.40625 112.863281 67.296875 112.898438 68.820312 112.136719 C 73.265625 109.925781 77.761719 107.824219 82.246094 105.6875 C 116.015625 89.601562 149.785156 73.503906 183.546875 57.394531 C 184.171875 57.074219 184.824219 56.832031 185.507812 56.675781 C 186.191406 56.515625 186.886719 56.441406 187.585938 56.453125 C 188.289062 56.464844 188.980469 56.5625 189.65625 56.746094 C 190.335938 56.925781 190.980469 57.1875 191.597656 57.527344 C 208.179688 65.511719 224.785156 73.449219 241.414062 81.332031 C 262.972656 91.605469 284.53125 101.882812 306.085938 112.164062 C 307.6875 112.933594 308.503906 112.703125 309.226562 111.050781 C 310.710938 107.683594 312.277344 104.347656 313.988281 101.089844 C 314.90625 99.339844 314.460938 98.59375 312.773438 97.800781 C 303.46875 93.441406 294.257812 88.894531 284.925781 84.605469 C 284.160156 84.324219 283.460938 83.925781 282.824219 83.414062 C 282.191406 82.902344 281.65625 82.300781 281.21875 81.613281 C 280.78125 80.925781 280.464844 80.1875 280.269531 79.394531 C 280.074219 78.605469 280.011719 77.804688 280.078125 76.992188 C 280.167969 67.390625 280.109375 57.792969 280.109375 48.195312 L 280.109375 45.367188 Z M 261.539062 45.371094 " fill-opacity="1" fill-rule="nonzero"/></g><path fill="#ffffff" d="M 181.25 217.660156 C 181.289062 216.980469 181.359375 216.3125 181.359375 215.644531 C 181.359375 202.1875 181.335938 188.730469 181.398438 175.28125 C 181.457031 174.933594 181.449219 174.585938 181.371094 174.242188 C 181.292969 173.894531 181.15625 173.578125 180.953125 173.285156 C 180.753906 172.996094 180.503906 172.753906 180.210938 172.558594 C 179.914062 172.363281 179.59375 172.234375 179.246094 172.164062 C 172.207031 169.847656 165.632812 166.585938 159.527344 162.382812 C 142.550781 150.117188 145.773438 125.992188 160.683594 115.5 C 163.382812 113.585938 166.269531 112.007812 169.335938 110.765625 C 172.40625 109.527344 175.578125 108.65625 178.847656 108.15625 C 180.691406 107.863281 181.527344 107.324219 181.410156 105.289062 C 181.230469 102.128906 181.347656 98.949219 181.367188 95.777344 C 181.394531 91.542969 183.9375 88.609375 187.488281 88.667969 C 190.984375 88.726562 193.441406 91.570312 193.472656 95.664062 C 193.496094 98.75 193.574219 101.839844 193.441406 104.917969 C 193.363281 106.8125 193.851562 107.542969 195.917969 107.785156 C 205.492188 108.902344 214.226562 112.128906 221.347656 118.890625 C 222.765625 120.261719 224.042969 121.753906 225.175781 123.371094 C 225.4375 123.683594 225.664062 124.023438 225.855469 124.382812 C 226.046875 124.742188 226.203125 125.117188 226.316406 125.507812 C 226.433594 125.898438 226.507812 126.300781 226.542969 126.707031 C 226.578125 127.113281 226.574219 127.519531 226.527344 127.921875 C 226.480469 128.328125 226.390625 128.726562 226.261719 129.113281 C 226.136719 129.5 225.96875 129.871094 225.769531 130.226562 C 225.566406 130.578125 225.328125 130.910156 225.058594 131.214844 C 224.789062 131.519531 224.492188 131.796875 224.164062 132.042969 C 223.839844 132.289062 223.492188 132.5 223.121094 132.675781 C 222.75 132.851562 222.367188 132.988281 221.96875 133.082031 C 221.570312 133.175781 221.167969 133.230469 220.757812 133.242188 C 220.347656 133.253906 219.941406 133.222656 219.539062 133.152344 C 219.136719 133.078125 218.746094 132.964844 218.367188 132.8125 C 217.988281 132.660156 217.625 132.46875 217.285156 132.238281 C 216.949219 132.011719 216.632812 131.75 216.347656 131.457031 C 216.0625 131.164062 215.808594 130.84375 215.589844 130.5 C 210.429688 123.621094 203.128906 120.925781 195.007812 119.765625 C 194.539062 119.738281 194.070312 119.738281 193.601562 119.765625 C 193.558594 120.722656 193.488281 121.558594 193.488281 122.390625 C 193.480469 135.589844 193.527344 148.789062 193.4375 161.988281 C 193.421875 163.953125 194.101562 164.65625 195.878906 165.433594 C 201.921875 167.839844 207.761719 170.660156 213.40625 173.886719 C 232.925781 185.949219 229.292969 211.355469 214.136719 222.007812 C 211.402344 223.949219 208.480469 225.546875 205.371094 226.800781 C 202.257812 228.050781 199.046875 228.921875 195.730469 229.414062 C 194.058594 229.664062 193.378906 230.242188 193.453125 232.007812 C 193.582031 235.261719 193.503906 238.519531 193.484375 241.777344 C 193.457031 246.015625 190.917969 248.941406 187.355469 248.882812 C 183.867188 248.824219 181.40625 245.96875 181.371094 241.890625 C 181.347656 238.804688 181.269531 235.714844 181.40625 232.632812 C 181.488281 230.730469 180.96875 230.011719 178.925781 229.78125 C 174.628906 229.421875 170.476562 228.445312 166.472656 226.84375 C 162.464844 225.246094 158.78125 223.09375 155.421875 220.390625 C 153.332031 218.605469 151.46875 216.613281 149.832031 214.410156 C 147.433594 211.265625 147.9375 207.5625 150.714844 205.546875 C 153.605469 203.457031 157.027344 204.132812 159.457031 207.320312 C 164.734375 214.238281 172.171875 216.820312 180.40625 217.8125 C 180.695312 217.796875 180.976562 217.746094 181.25 217.660156 Z M 193.636719 217.679688 C 201.339844 216.078125 208.121094 213.40625 212.320312 206.480469 C 216.097656 200.257812 215.550781 192.222656 210.980469 187.347656 C 206.28125 182.335938 200.085938 179.886719 193.640625 177.382812 Z M 181.15625 160.613281 L 181.15625 119.882812 C 174.660156 121.105469 168.886719 123.257812 164.542969 128.160156 C 157.519531 136.085938 158.691406 147.207031 167.445312 153.140625 C 171.570312 155.941406 176.222656 157.957031 181.15625 160.613281 Z M 181.15625 160.613281 " fill-opacity="1" fill-rule="nonzero"/></svg>