<svg xmlns="http://www.w3.org/2000/svg" xmlns:xlink="http://www.w3.org/1999/xlink" width="500" zoomAndPan="magnify" viewBox="0 0 375 374.999991" height="500" preserveAspectRatio="xMidYMid meet" version="1.0"><defs><clipPath id="0f0bc0fa97"><path d="M 10 220 L 364.707031 220 L 364.707031 337.527344 L 10 337.527344 Z M 10 220 " clip-rule="nonzero"/></clipPath><clipPath id="3120b271f0"><path d="M 20 21.027344 L 355 21.027344 L 355 245 L 20 245 Z M 20 21.027344 " clip-rule="nonzero"/></clipPath></defs><g clip-path="url(#0f0bc0fa97)"><path fill="#ffffff" d="M 361.609375 233.675781 L 361.59375 233.660156 C 360.96875 233 360.34375 232.476562 359.683594 232.058594 C 358.96875 231.605469 358.203125 231.265625 357.605469 231.019531 C 350.941406 228.308594 343.710938 229.621094 338.144531 231.066406 C 333.921875 232.195312 329.804688 233.890625 325.917969 236.105469 C 324.476562 236.925781 323.070312 237.824219 321.710938 238.691406 C 320.625 239.386719 319.5 240.101562 318.386719 240.757812 C 316.644531 241.804688 314.757812 242.722656 312.632812 243.5625 C 310.796875 244.277344 308.941406 244.871094 307.386719 245.34375 C 305.273438 243.019531 302.394531 241.636719 298.820312 241.230469 C 296.039062 240.914062 292.835938 241.199219 289.300781 242.066406 C 285.398438 242.996094 281.679688 244.421875 278.257812 246.296875 C 277.820312 246.535156 277.402344 246.777344 276.972656 247.027344 C 276.824219 247.117188 276.691406 247.195312 276.574219 247.269531 C 276.265625 247.457031 276.121094 247.542969 275.917969 247.625 C 275.683594 247.6875 275.34375 247.726562 275.015625 247.765625 C 274.789062 247.789062 274.550781 247.816406 274.3125 247.855469 C 272.207031 248.167969 270.179688 248.816406 268.394531 249.742188 C 267.964844 249.492188 267.527344 249.25 267.089844 249.011719 C 256.546875 243.414062 244.730469 241.78125 233.542969 240.59375 C 229.425781 240.136719 225.230469 239.792969 221.167969 239.457031 C 210.695312 238.597656 199.867188 237.707031 189.632812 234.828125 C 184.996094 233.449219 180.363281 231.550781 175.882812 229.714844 C 171.503906 227.921875 166.976562 226.066406 162.363281 224.652344 L 161.765625 224.476562 C 160.613281 224.132812 159.304688 223.742188 158.214844 223.46875 C 149.753906 221.199219 141.359375 220.15625 133.257812 220.371094 C 124.453125 220.605469 116.160156 222.324219 108.605469 225.488281 C 95.9375 230.585938 85.855469 239.925781 75.792969 249.859375 L 75.132812 250.484375 C 70.734375 254.664062 66.1875 258.980469 60.609375 261.15625 C 59.953125 261.402344 59.253906 261.621094 58.472656 261.820312 C 58.179688 261.894531 57.878906 261.964844 57.578125 262.035156 C 57.535156 261.734375 57.492188 261.441406 57.453125 261.15625 L 57.4375 261.082031 C 57.433594 261.046875 57.414062 260.957031 57.394531 260.851562 C 57.332031 260.507812 57.308594 260.386719 57.292969 260.316406 L 57.277344 260.246094 C 57.222656 260.050781 57.15625 259.84375 57.097656 259.660156 L 57.054688 259.507812 L 57.03125 259.445312 C 56.09375 256.828125 53.851562 254.808594 51.179688 254.167969 C 50.554688 254.019531 49.976562 253.941406 49.460938 253.941406 C 48.734375 253.914062 48.046875 254.011719 47.441406 254.097656 C 47.28125 254.121094 47.125 254.144531 46.972656 254.164062 L 46.960938 254.164062 C 37.003906 255.507812 26.925781 256.75 17.003906 257.851562 C 17 257.851562 17 257.851562 16.996094 257.851562 C 16.996094 257.851562 16.992188 257.851562 16.992188 257.851562 L 17.3125 260.769531 C 28.519531 259.554688 38.640625 258.484375 49.023438 257.679688 C 50.863281 257.710938 52.558594 258.988281 53.058594 260.730469 C 53.074219 260.78125 53.085938 260.835938 53.097656 260.890625 C 53.113281 260.949219 53.125 261.007812 53.140625 261.066406 C 53.296875 261.703125 53.332031 262.4375 53.371094 263.214844 C 53.386719 263.539062 53.402344 263.878906 53.429688 264.214844 L 53.53125 265.527344 C 53.75 268.339844 53.96875 271.179688 54.1875 274.039062 C 55.367188 289.3125 56.585938 305.109375 58.089844 320.097656 C 58.128906 320.5 58.171875 320.902344 58.210938 321.300781 L 58.410156 323.238281 C 58.417969 323.328125 58.433594 323.46875 58.449219 323.609375 C 58.460938 323.726562 58.472656 323.847656 58.480469 323.929688 C 58.480469 324.023438 58.488281 324.105469 58.492188 324.171875 C 58.492188 324.199219 58.496094 324.222656 58.496094 324.25 L 58.484375 324.507812 C 58.453125 324.710938 58.417969 324.914062 58.363281 325.050781 L 58.300781 325.226562 C 58.292969 325.246094 58.285156 325.261719 58.277344 325.28125 C 58.226562 325.382812 58.179688 325.484375 58.144531 325.539062 L 58.09375 325.613281 C 57.960938 325.851562 57.726562 326.09375 57.375 326.359375 C 57.046875 326.574219 56.664062 326.714844 56.238281 326.769531 C 45.105469 327.988281 34.054688 329.414062 24.703125 330.648438 C 24.152344 330.664062 23.625 330.539062 23.179688 330.285156 L 23.152344 330.269531 C 22.46875 329.894531 21.925781 329.199219 21.699219 328.40625 L 21.617188 328.003906 L 21.4375 326.726562 C 20.683594 321.402344 19.875 315.867188 19.089844 310.515625 C 16.902344 295.558594 14.640625 280.089844 13.050781 265.4375 C 13.050781 265.394531 13.050781 265.351562 13.050781 265.308594 C 13.054688 265.242188 13.054688 265.136719 13.0625 265.089844 L 13.125 264.636719 C 13.1875 264.359375 13.261719 264.09375 13.359375 263.824219 L 13.574219 263.34375 C 13.589844 263.3125 13.621094 263.261719 13.648438 263.210938 C 13.679688 263.160156 13.710938 263.109375 13.738281 263.058594 L 13.828125 262.910156 C 14.152344 262.421875 14.570312 261.988281 15.074219 261.621094 C 15.15625 261.570312 15.230469 261.519531 15.304688 261.472656 C 15.394531 261.417969 15.527344 261.332031 15.574219 261.308594 L 15.65625 261.277344 L 15.738281 261.234375 C 15.851562 261.171875 16.101562 261.070312 16.332031 260.988281 C 16.390625 260.964844 16.503906 260.9375 16.601562 260.914062 C 16.675781 260.894531 16.75 260.875 16.824219 260.855469 C 16.886719 260.84375 16.929688 260.832031 16.972656 260.824219 L 16.445312 257.941406 L 16.414062 257.945312 C 16.335938 257.957031 16.257812 257.972656 16.179688 257.988281 L 16.085938 258.011719 C 15.878906 258.066406 15.644531 258.128906 15.429688 258.191406 L 15.375 258.210938 C 14.484375 258.515625 13.660156 258.96875 12.992188 259.511719 C 12.148438 260.183594 11.433594 261.046875 10.925781 262.015625 L 10.628906 262.644531 L 10.5 262.996094 C 10.386719 263.285156 10.320312 263.558594 10.265625 263.78125 C 10.25 263.855469 10.230469 263.925781 10.214844 263.996094 L 10.191406 264.078125 L 10.105469 264.65625 C 10.09375 264.726562 10.074219 264.835938 10.070312 264.96875 L 10.046875 265.449219 C 10.042969 265.535156 10.035156 265.679688 10.050781 265.851562 C 11.238281 278.160156 12.210938 288.417969 13.027344 299.035156 C 13.230469 301.632812 13.488281 304.957031 13.761719 308.527344 C 14.308594 315.59375 14.929688 323.609375 15.335938 328.746094 L 15.34375 328.824219 C 15.351562 328.902344 15.363281 328.980469 15.375 329.058594 C 15.398438 329.261719 15.429688 329.488281 15.464844 329.710938 L 15.480469 329.789062 C 15.550781 330.101562 15.628906 330.414062 15.703125 330.675781 L 15.710938 330.710938 C 16.757812 334.199219 19.890625 336.878906 23.511719 337.390625 C 23.945312 337.464844 24.402344 337.488281 24.847656 337.488281 C 25.535156 337.488281 26.207031 337.429688 26.753906 337.378906 L 28.757812 337.199219 C 30.085938 337.078125 31.414062 336.953125 32.742188 336.832031 C 41.035156 336.066406 49.605469 335.277344 58.015625 334.214844 L 58.109375 334.203125 L 58.199219 334.179688 C 58.503906 334.101562 58.847656 334.011719 59.160156 333.910156 L 59.175781 333.90625 C 61.941406 332.992188 64.25 330.820312 65.34375 328.097656 L 65.351562 328.078125 C 65.78125 326.960938 66.015625 325.859375 66.050781 324.796875 C 66.082031 324.226562 66.054688 323.609375 65.960938 322.859375 L 65.941406 322.667969 C 65.925781 322.554688 65.914062 322.441406 65.898438 322.328125 C 74.246094 321.84375 81.191406 321.609375 87.652344 321.601562 C 103.800781 321.535156 121.0625 323.125 141.972656 326.597656 C 149.632812 327.863281 157.433594 329.289062 164.976562 330.667969 C 176.898438 332.84375 189.226562 335.09375 201.460938 336.816406 C 206.480469 337.507812 211.808594 337.613281 217.75 337.140625 L 217.773438 337.140625 C 224.332031 336.515625 231.21875 335.449219 237.175781 331.871094 L 237.214844 331.84375 C 254.988281 320.335938 273.828125 309.847656 292.050781 299.703125 C 297.585938 296.621094 303.3125 293.433594 308.921875 290.265625 L 308.933594 290.257812 C 318.285156 284.855469 327.871094 278.757812 338.234375 271.617188 L 338.246094 271.605469 C 343.75 267.71875 348.589844 263.839844 353.035156 259.746094 L 353.070312 259.714844 C 354.832031 257.988281 356.355469 255.332031 357.289062 252.371094 C 357.359375 252.320312 357.425781 252.269531 357.496094 252.21875 L 357.738281 252.035156 L 357.769531 252.011719 C 359.253906 250.851562 360.644531 249.589844 361.917969 248.261719 C 363.550781 246.539062 364.8125 244.988281 364.9375 242.078125 L 364.9375 242.042969 C 364.996094 239.074219 363.78125 236.023438 361.609375 233.675781 Z M 274.46875 253.851562 C 274.605469 253.863281 274.738281 253.882812 274.875 253.898438 C 275.210938 253.9375 275.550781 253.980469 275.917969 254.003906 C 276.714844 254.058594 277.570312 253.980469 278.269531 253.792969 C 278.875 253.636719 279.375 253.441406 279.777344 253.28125 C 279.847656 253.253906 279.917969 253.226562 279.988281 253.199219 C 284.613281 251.390625 289.234375 249.882812 293.738281 248.722656 C 295.414062 248.285156 297.214844 247.894531 299.015625 247.789062 C 297.003906 248.425781 295.050781 249.195312 293.15625 249.945312 C 291.808594 250.476562 290.414062 251.027344 289.035156 251.511719 C 287.308594 252.117188 285.535156 252.484375 283.652344 252.871094 C 283.425781 252.917969 283.199219 252.964844 282.964844 253.015625 L 282.925781 253.023438 C 281.773438 253.265625 280.582031 253.523438 279.394531 253.863281 C 278.339844 254.148438 277.359375 254.515625 276.414062 254.871094 C 276.175781 254.957031 275.949219 255.042969 275.71875 255.128906 C 275.242188 254.6875 274.75 254.25 274.242188 253.828125 C 274.320312 253.835938 274.394531 253.84375 274.46875 253.851562 Z M 351.425781 250.117188 C 350.753906 252.148438 349.886719 253.746094 348.847656 254.867188 C 348.804688 254.910156 348.75 254.960938 348.707031 255 L 347.773438 255.816406 C 343.542969 259.441406 339.046875 262.871094 334.410156 266.015625 C 324.019531 272.90625 314.515625 278.769531 305.347656 283.9375 C 300.835938 286.425781 296.214844 288.945312 291.746094 291.378906 C 282.308594 296.527344 272.550781 301.847656 263.109375 307.25 C 252.046875 313.578125 243.089844 318.980469 234.917969 324.257812 C 234.648438 324.429688 233.421875 325.21875 233.148438 325.394531 C 230.160156 327.226562 226.625 328.105469 223.554688 328.722656 C 215.949219 330.125 208.082031 330.289062 200.796875 329.203125 L 200.777344 329.199219 C 190.769531 327.851562 180.617188 326.152344 170.800781 324.511719 L 170.273438 324.421875 C 146.90625 320.457031 122.738281 316.359375 98.007812 316.21875 C 97.300781 316.210938 96.589844 316.207031 95.871094 316.207031 C 86.808594 316.207031 77.019531 316.746094 65.363281 317.878906 C 64.324219 309.441406 63.128906 300.515625 61.71875 290.640625 C 61.300781 287.746094 60.746094 283.929688 60.160156 279.886719 C 59.5 275.335938 58.800781 270.496094 58.207031 266.367188 C 58.625 266.289062 59.042969 266.207031 59.453125 266.121094 C 62.417969 265.519531 65.5 264.214844 68.613281 262.25 L 68.625 262.242188 C 73.539062 259.066406 77.976562 254.996094 82.269531 251.0625 C 84.542969 248.976562 86.894531 246.820312 89.246094 244.871094 L 89.265625 244.851562 C 100.105469 235.519531 111.507812 229.867188 123.152344 228.054688 L 123.167969 228.050781 C 134.601562 226.15625 147.058594 227.335938 160.1875 231.5625 C 164.542969 232.953125 168.886719 234.78125 173.085938 236.550781 C 178.796875 238.957031 184.699219 241.441406 190.898438 242.96875 C 200.808594 245.398438 211.09375 246.269531 221.039062 247.113281 C 223.800781 247.347656 226.65625 247.589844 229.441406 247.859375 L 229.550781 247.871094 C 244.761719 249.410156 262 251.152344 272.453125 262.367188 C 275.1875 265.390625 276.375 269.039062 275.710938 272.378906 C 275.070312 275.585938 272.804688 278.257812 269.328125 279.90625 L 268.703125 280.195312 C 268.398438 280.3125 268.085938 280.433594 267.777344 280.546875 L 267.117188 280.753906 C 263.917969 281.683594 260.328125 281.527344 256.863281 281.378906 C 255.378906 281.316406 253.84375 281.246094 252.351562 281.265625 C 248.097656 281.257812 243.8125 281.609375 239.679688 281.945312 C 233.820312 282.425781 227.757812 282.925781 221.855469 282.363281 C 217.960938 281.960938 213.992188 281.066406 210.15625 280.203125 C 205.40625 279.132812 200.5 278.027344 195.503906 277.769531 C 195.332031 277.761719 194.882812 277.742188 194.410156 277.722656 C 193.996094 277.703125 193.527344 277.6875 193.394531 277.675781 L 193.339844 277.675781 C 190.949219 277.621094 188.492188 277.664062 186.03125 277.804688 C 181.589844 278.082031 176.894531 278.703125 171.679688 279.707031 C 167.152344 280.582031 162.714844 281.632812 158.550781 282.636719 C 156.335938 283.1875 154.253906 283.59375 152.199219 283.882812 C 147.429688 284.539062 143.285156 284.429688 139.53125 283.542969 L 138.800781 286.382812 L 139.738281 286.640625 C 139.84375 286.671875 139.949219 286.703125 140.050781 286.726562 C 141.914062 287.183594 143.804688 287.476562 145.667969 287.597656 C 149.730469 287.882812 154.222656 287.523438 159.398438 286.5 C 163.808594 285.644531 168.121094 284.824219 172.441406 284.164062 C 175.058594 283.773438 177.183594 283.5 178.949219 283.332031 C 184.1875 282.796875 188.949219 282.683594 193.515625 282.992188 L 193.539062 282.992188 C 198.707031 283.257812 203.609375 284.507812 208.800781 285.828125 C 212.792969 286.84375 216.925781 287.894531 221.167969 288.445312 C 227.558594 289.226562 234.007812 288.839844 240.246094 288.460938 C 243.949219 288.238281 247.777344 288.007812 251.5 288.035156 C 253.457031 288.042969 256.078125 288.199219 258 288.316406 C 261.558594 288.515625 265.359375 288.558594 269.0625 287.523438 L 269.976562 287.25 L 270.03125 287.234375 C 270.433594 287.09375 270.863281 286.9375 271.390625 286.734375 L 271.4375 286.71875 C 271.554688 286.667969 271.726562 286.589844 271.894531 286.515625 C 272.039062 286.449219 272.183594 286.386719 272.289062 286.34375 L 272.328125 286.324219 C 277.648438 283.890625 281.3125 279.734375 282.644531 274.613281 C 283.804688 270.152344 283.050781 265.3125 280.585938 261.03125 C 284.894531 260.292969 289.183594 259.234375 293.363281 257.867188 C 294.332031 257.554688 295.308594 257.222656 296.253906 256.902344 C 299.824219 255.6875 303.519531 254.433594 307.246094 253.964844 C 307.941406 253.878906 308.539062 253.65625 309.066406 253.457031 L 309.214844 253.402344 C 310.621094 252.855469 311.980469 252.230469 313.296875 251.625 C 314.738281 250.957031 316.214844 250.257812 317.691406 249.542969 C 318.683594 249.128906 319.636719 248.6875 320.515625 248.230469 C 320.980469 247.988281 321.453125 247.734375 321.960938 247.449219 C 323.953125 246.464844 325.96875 245.453125 327.917969 244.476562 C 329.375 243.746094 330.832031 243.015625 332.277344 242.292969 C 333.105469 241.890625 333.925781 241.550781 334.738281 241.277344 C 337.449219 240.347656 340.488281 240.050781 343.765625 240.402344 L 343.78125 240.402344 C 346.589844 240.671875 349.457031 241.097656 350.980469 243.058594 C 352.277344 244.753906 352.417969 246.996094 351.425781 250.117188 Z M 359.542969 243.585938 C 359.277344 244.171875 358.863281 244.78125 358.433594 245.398438 C 358.355469 245.507812 358.277344 245.617188 358.199219 245.726562 C 358.144531 244.925781 358.015625 244.171875 357.820312 243.46875 L 357.816406 243.453125 C 356.910156 240.359375 355.078125 238.054688 352.371094 236.605469 C 352.210938 236.519531 352.050781 236.4375 351.882812 236.359375 C 353.363281 236.453125 354.839844 236.730469 356.25 237.273438 C 357.535156 237.800781 358.425781 239.011719 358.953125 239.941406 C 359.390625 240.738281 360.035156 242.257812 359.542969 243.585938 Z M 359.542969 243.585938 " fill-opacity="1" fill-rule="nonzero"/></g><path fill="#ffffff" d="M 207.085938 92.910156 L 187.496094 73.578125 L 167.90625 92.910156 L 167.90625 120.386719 L 207.085938 120.386719 Z M 185.019531 114.519531 L 173.773438 114.519531 L 173.773438 104.40625 L 185.019531 104.40625 Z M 185.019531 99.457031 L 173.773438 99.457031 L 173.773438 95.363281 L 185.019531 84.261719 Z M 201.21875 114.519531 L 189.96875 114.519531 L 189.96875 104.40625 L 201.21875 104.40625 Z M 201.21875 99.457031 L 189.96875 99.457031 L 189.96875 84.261719 L 201.21875 95.363281 Z M 201.21875 99.457031 " fill-opacity="1" fill-rule="nonzero"/><g clip-path="url(#3120b271f0)"><path fill="#ffffff" d="M 72.570312 244.800781 C 82.769531 234.769531 93.105469 225.410156 106.382812 220.058594 C 114.597656 216.625 123.589844 214.757812 133.105469 214.507812 C 133.84375 214.488281 134.597656 214.476562 135.339844 214.476562 C 143.195312 214.476562 151.292969 215.566406 159.410156 217.714844 C 159.503906 217.738281 159.597656 217.765625 159.691406 217.789062 C 160.898438 218.09375 162.246094 218.496094 163.441406 218.855469 L 164.082031 219.046875 C 165.273438 219.410156 166.453125 219.800781 167.621094 220.210938 L 167.621094 190.042969 L 207.367188 190.042969 L 207.367188 232.246094 C 210.097656 232.582031 212.84375 232.855469 215.582031 233.097656 C 217.613281 233.28125 219.636719 233.449219 221.648438 233.613281 C 225.746094 233.949219 229.976562 234.296875 234.171875 234.761719 C 245.539062 235.972656 257.546875 237.628906 268.691406 243.238281 C 270.210938 242.699219 271.804688 242.300781 273.414062 242.058594 C 273.621094 242.027344 273.816406 242 273.992188 241.980469 C 273.996094 241.976562 274.003906 241.972656 274.007812 241.972656 C 274.480469 241.695312 274.9375 241.429688 275.445312 241.152344 C 279.324219 239.027344 283.519531 237.417969 287.921875 236.367188 C 290.96875 235.621094 293.863281 235.242188 296.527344 235.242188 C 297.539062 235.242188 298.53125 235.296875 299.476562 235.402344 C 300.488281 235.519531 301.472656 235.695312 302.421875 235.933594 L 302.421875 144.082031 L 354.503906 144.082031 L 291.824219 97.898438 L 291.824219 31.609375 L 246.628906 31.609375 L 246.628906 64.597656 L 187.496094 21.027344 L 20.488281 144.082031 L 72.570312 144.082031 Z M 49.535156 135.867188 L 187.496094 34.21875 L 246.628906 77.789062 L 254.839844 83.839844 L 254.839844 39.824219 L 283.609375 39.824219 L 283.609375 105.039062 L 291.824219 111.089844 L 325.453125 135.867188 L 294.207031 135.867188 L 294.207031 227.097656 C 291.574219 227.261719 288.820312 227.691406 285.988281 228.382812 C 280.890625 229.601562 276.015625 231.472656 271.507812 233.941406 C 271.414062 233.996094 269.996094 234.335938 269.386719 234.484375 C 257.925781 229.378906 246.175781 227.777344 235.058594 226.597656 C 230.734375 226.117188 226.457031 225.765625 222.320312 225.425781 C 220.085938 225.242188 217.832031 225.058594 215.582031 224.851562 L 215.582031 181.828125 L 159.410156 181.828125 L 159.410156 209.242188 C 151.304688 207.265625 143.21875 206.265625 135.339844 206.265625 C 134.554688 206.265625 133.730469 206.273438 132.898438 206.296875 C 122.371094 206.574219 112.402344 208.648438 103.261719 212.460938 C 94.746094 215.902344 87.417969 220.757812 80.78125 226.171875 L 80.78125 135.867188 Z M 49.535156 135.867188 " fill-opacity="1" fill-rule="nonzero"/></g></svg>