<svg xmlns="http://www.w3.org/2000/svg" xmlns:xlink="http://www.w3.org/1999/xlink" width="500" zoomAndPan="magnify" viewBox="0 0 375 374.999991" height="500" preserveAspectRatio="xMidYMid meet" version="1.0"><defs><clipPath id="b7f963ef07"><path d="M 9.609375 161 L 365.109375 161 L 365.109375 361 L 9.609375 361 Z M 9.609375 161 " clip-rule="nonzero"/></clipPath></defs><g clip-path="url(#b7f963ef07)"><path fill="#ffffff" d="M 36.878906 261.917969 C 10.039062 268.867188 35.230469 312.472656 53.203125 321.183594 C 55.320312 322.433594 57.550781 323.441406 59.894531 324.199219 L 66.34375 341.625 C 66.867188 343.023438 67.488281 344.375 68.21875 345.679688 C 68.945312 346.984375 69.765625 348.226562 70.683594 349.40625 C 71.597656 350.585938 72.597656 351.691406 73.679688 352.71875 C 74.761719 353.746094 75.917969 354.6875 77.144531 355.542969 C 78.367188 356.394531 79.652344 357.152344 80.992188 357.808594 C 82.332031 358.46875 83.714844 359.023438 85.140625 359.472656 C 86.5625 359.921875 88.011719 360.261719 89.488281 360.488281 C 90.964844 360.71875 92.449219 360.835938 93.941406 360.839844 L 281.046875 360.839844 C 282.542969 360.835938 284.027344 360.71875 285.5 360.488281 C 286.976562 360.261719 288.425781 359.921875 289.851562 359.472656 C 291.277344 359.023438 292.660156 358.46875 294 357.808594 C 295.339844 357.152344 296.621094 356.394531 297.847656 355.542969 C 299.074219 354.6875 300.226562 353.746094 301.308594 352.71875 C 302.394531 351.691406 303.390625 350.585938 304.308594 349.40625 C 305.222656 348.226562 306.042969 346.984375 306.769531 345.679688 C 307.5 344.375 308.121094 343.023438 308.644531 341.625 L 315.097656 324.199219 C 317.4375 323.441406 319.667969 322.433594 321.789062 321.183594 C 339.84375 312.445312 364.894531 268.820312 338.113281 261.917969 L 360.371094 201.847656 C 361.070312 200.9375 361.699219 199.980469 362.265625 198.984375 C 362.832031 197.984375 363.324219 196.953125 363.746094 195.886719 C 364.167969 194.820312 364.515625 193.730469 364.789062 192.617188 C 365.058594 191.503906 365.25 190.375 365.367188 189.234375 C 365.480469 188.09375 365.515625 186.949219 365.472656 185.800781 C 365.429688 184.65625 365.308594 183.519531 365.105469 182.390625 C 364.90625 181.261719 364.625 180.152344 364.273438 179.0625 C 363.917969 177.96875 363.488281 176.910156 362.984375 175.878906 C 362.484375 174.847656 361.914062 173.855469 361.273438 172.902344 C 360.636719 171.953125 359.933594 171.046875 359.167969 170.191406 C 358.402344 169.339844 357.585938 168.539062 356.710938 167.800781 C 355.832031 167.058594 354.910156 166.378906 353.941406 165.765625 C 352.972656 165.152344 351.96875 164.609375 350.921875 164.136719 C 349.878906 163.660156 348.808594 163.261719 347.707031 162.9375 C 346.605469 162.609375 345.492188 162.363281 344.355469 162.191406 C 343.222656 162.019531 342.082031 161.929688 340.933594 161.917969 L 317.699219 161.917969 C 316.773438 161.921875 315.859375 162.015625 314.953125 162.191406 C 314.046875 162.371094 313.164062 162.632812 312.308594 162.976562 C 311.449219 163.320312 310.632812 163.738281 309.855469 164.238281 C 309.074219 164.734375 308.351562 165.296875 307.675781 165.929688 C 307.003906 166.566406 306.398438 167.253906 305.855469 168 C 305.3125 168.75 304.839844 169.539062 304.445312 170.375 C 304.050781 171.210938 303.738281 172.074219 303.507812 172.96875 C 303.273438 173.863281 303.125 174.769531 303.0625 175.691406 L 298.199219 201.816406 L 76.792969 201.816406 L 71.925781 175.691406 C 71.867188 174.769531 71.71875 173.863281 71.484375 172.96875 C 71.253906 172.074219 70.9375 171.210938 70.542969 170.375 C 70.148438 169.539062 69.679688 168.75 69.136719 168 C 68.59375 167.253906 67.988281 166.566406 67.3125 165.933594 C 66.640625 165.296875 65.917969 164.734375 65.136719 164.238281 C 64.359375 163.738281 63.542969 163.320312 62.683594 162.976562 C 61.828125 162.632812 60.945312 162.371094 60.039062 162.195312 C 59.132812 162.015625 58.21875 161.921875 57.292969 161.917969 L 34.054688 161.917969 C 32.910156 161.929688 31.769531 162.019531 30.632812 162.191406 C 29.5 162.363281 28.382812 162.609375 27.28125 162.9375 C 26.183594 163.261719 25.109375 163.660156 24.066406 164.132812 C 23.023438 164.609375 22.015625 165.152344 21.046875 165.765625 C 20.078125 166.378906 19.15625 167.058594 18.28125 167.796875 C 17.40625 168.539062 16.585938 169.335938 15.820312 170.191406 C 15.054688 171.046875 14.355469 171.949219 13.714844 172.902344 C 13.074219 173.855469 12.503906 174.847656 12.003906 175.878906 C 11.5 176.910156 11.074219 177.96875 10.71875 179.0625 C 10.363281 180.152344 10.085938 181.261719 9.882812 182.390625 C 9.683594 183.519531 9.558594 184.65625 9.515625 185.804688 C 9.472656 186.949219 9.507812 188.09375 9.625 189.234375 C 9.738281 190.375 9.933594 191.503906 10.203125 192.617188 C 10.476562 193.730469 10.820312 194.820312 11.242188 195.886719 C 11.667969 196.953125 12.160156 197.988281 12.726562 198.984375 C 13.289062 199.980469 13.921875 200.9375 14.621094 201.847656 Z M 45.207031 301.558594 C 42.347656 297.933594 40.039062 293.992188 38.273438 289.730469 C 36.511719 285.46875 35.359375 281.050781 34.820312 276.46875 C 34.738281 275.835938 34.789062 275.210938 34.964844 274.597656 C 35.144531 273.984375 35.433594 273.433594 35.84375 272.941406 C 36.253906 272.441406 36.75 272.042969 37.328125 271.75 C 37.90625 271.457031 38.519531 271.289062 39.167969 271.25 C 54.171875 270.21875 68.847656 267.445312 83.199219 262.929688 C 83.640625 262.796875 84.089844 262.726562 84.554688 262.726562 C 85.015625 262.730469 85.46875 262.796875 85.910156 262.9375 C 86.351562 263.074219 86.761719 263.273438 87.144531 263.535156 C 87.523438 263.796875 87.859375 264.109375 88.144531 264.472656 C 89.054688 265.625 89.886719 266.832031 90.648438 268.085938 C 91.410156 269.34375 92.09375 270.640625 92.695312 271.980469 C 93.296875 273.320312 93.816406 274.691406 94.25 276.09375 C 94.6875 277.5 95.035156 278.921875 95.296875 280.367188 C 95.558594 281.8125 95.730469 283.269531 95.8125 284.734375 C 95.898438 286.203125 95.890625 287.667969 95.796875 289.136719 C 95.699219 290.601562 95.515625 292.054688 95.242188 293.5 C 94.96875 294.941406 94.609375 296.363281 94.164062 297.761719 C 85.84375 322.636719 59.320312 320.867188 45.207031 301.558594 Z M 299.609375 338.28125 C 299.261719 339.222656 298.839844 340.132812 298.351562 341.007812 C 297.863281 341.886719 297.308594 342.722656 296.695312 343.515625 C 296.078125 344.308594 295.40625 345.054688 294.675781 345.746094 C 293.949219 346.4375 293.171875 347.070312 292.347656 347.644531 C 291.523438 348.21875 290.660156 348.726562 289.757812 349.167969 C 288.859375 349.613281 287.929688 349.984375 286.96875 350.285156 C 286.011719 350.589844 285.035156 350.816406 284.042969 350.972656 C 283.050781 351.125 282.050781 351.203125 281.046875 351.207031 L 93.941406 351.207031 C 92.9375 351.203125 91.941406 351.125 90.945312 350.972656 C 89.953125 350.816406 88.980469 350.589844 88.019531 350.285156 C 87.0625 349.984375 86.132812 349.613281 85.230469 349.167969 C 84.328125 348.726562 83.464844 348.214844 82.640625 347.644531 C 81.816406 347.070312 81.042969 346.4375 80.3125 345.742188 C 79.585938 345.050781 78.910156 344.308594 78.296875 343.515625 C 77.679688 342.722656 77.128906 341.886719 76.636719 341.007812 C 76.148438 340.132812 75.726562 339.222656 75.375 338.28125 L 70.832031 326.007812 C 103.898438 325.8125 115.4375 281.894531 95.808594 258.632812 C 86.9375 247.183594 72.5625 257.539062 61.253906 258.613281 C 56.472656 259.566406 51.613281 260.25 46.738281 260.8125 L 28.15625 210.660156 C 30.089844 211.164062 32.058594 211.429688 34.054688 211.449219 L 340.9375 211.449219 C 342.933594 211.429688 344.898438 211.164062 346.835938 210.660156 L 328.25 260.8125 C 323.378906 260.25 318.519531 259.566406 313.738281 258.613281 C 302.460938 257.535156 288.042969 247.175781 279.183594 258.632812 C 278.394531 259.625 277.648438 260.648438 276.945312 261.703125 C 276.246094 262.757812 275.589844 263.839844 274.980469 264.949219 C 274.371094 266.0625 273.808594 267.195312 273.296875 268.355469 C 272.78125 269.511719 272.320312 270.691406 271.90625 271.890625 C 271.492188 273.085938 271.132812 274.300781 270.824219 275.527344 C 270.511719 276.757812 270.253906 277.996094 270.050781 279.246094 C 269.847656 280.5 269.695312 281.753906 269.597656 283.019531 C 269.5 284.28125 269.457031 285.546875 269.464844 286.8125 C 269.476562 288.082031 269.539062 289.34375 269.65625 290.605469 C 269.773438 291.867188 269.945312 293.121094 270.171875 294.371094 C 270.394531 295.617188 270.671875 296.851562 271 298.074219 C 271.328125 299.300781 271.710938 300.507812 272.140625 301.699219 C 272.574219 302.890625 273.054688 304.058594 273.585938 305.210938 C 274.117188 306.359375 274.695312 307.488281 275.324219 308.585938 C 275.949219 309.6875 276.621094 310.761719 277.339844 311.804688 C 278.058594 312.847656 278.820312 313.859375 279.625 314.839844 C 281.144531 316.597656 282.835938 318.175781 284.699219 319.570312 C 286.5625 320.964844 288.550781 322.144531 290.667969 323.105469 C 292.785156 324.070312 294.980469 324.796875 297.257812 325.285156 C 299.53125 325.773438 301.832031 326.015625 304.15625 326.007812 Z M 340.171875 276.46875 C 339.421875 298.339844 309.042969 332.058594 286.972656 308.613281 C 286.34375 307.839844 285.75 307.042969 285.1875 306.222656 C 284.628906 305.398438 284.101562 304.554688 283.613281 303.6875 C 283.125 302.820312 282.671875 301.933594 282.257812 301.03125 C 281.847656 300.125 281.472656 299.203125 281.136719 298.265625 C 280.800781 297.328125 280.507812 296.378906 280.253906 295.417969 C 280 294.453125 279.785156 293.484375 279.613281 292.503906 C 279.441406 291.523438 279.3125 290.535156 279.226562 289.542969 C 279.136719 288.554688 279.09375 287.558594 279.089844 286.566406 C 279.085938 285.570312 279.125 284.574219 279.207031 283.582031 C 279.289062 282.589844 279.414062 281.605469 279.578125 280.625 C 279.746094 279.640625 279.953125 278.667969 280.199219 277.707031 C 280.449219 276.742188 280.738281 275.789062 281.066406 274.851562 C 281.398438 273.914062 281.765625 272.988281 282.175781 272.082031 C 282.582031 271.171875 283.027344 270.285156 283.511719 269.414062 C 283.996094 268.546875 284.515625 267.699219 285.070312 266.871094 C 285.628906 266.046875 286.21875 265.246094 286.84375 264.472656 C 287.277344 263.917969 287.8125 263.488281 288.445312 263.183594 C 289.078125 262.875 289.75 262.726562 290.453125 262.726562 C 297.554688 264.414062 304.628906 266.816406 311.863281 268.0625 C 319.78125 269.632812 327.769531 270.695312 335.824219 271.25 C 336.140625 271.269531 336.453125 271.324219 336.761719 271.40625 C 337.066406 271.488281 337.363281 271.601562 337.644531 271.746094 C 337.929688 271.890625 338.195312 272.0625 338.445312 272.261719 C 338.691406 272.457031 338.917969 272.679688 339.121094 272.921875 C 339.324219 273.167969 339.5 273.429688 339.652344 273.710938 C 339.800781 273.992188 339.921875 274.28125 340.011719 274.585938 C 340.101562 274.890625 340.160156 275.203125 340.1875 275.519531 C 340.214844 275.835938 340.207031 276.152344 340.171875 276.46875 Z M 310.339844 189.226562 C 314.648438 192.496094 326.425781 190.949219 331.507812 191.277344 L 331.507812 181.644531 L 317.699219 181.644531 C 317.371094 181.640625 317.046875 181.601562 316.726562 181.53125 C 316.40625 181.464844 316.097656 181.363281 315.796875 181.234375 C 315.496094 181.105469 315.210938 180.945312 314.941406 180.761719 C 314.671875 180.578125 314.421875 180.367188 314.191406 180.132812 C 313.960938 179.898438 313.757812 179.644531 313.578125 179.371094 C 313.398438 179.097656 313.246094 178.808594 313.121094 178.507812 C 313 178.203125 312.90625 177.890625 312.839844 177.570312 C 312.777344 177.25 312.746094 176.925781 312.746094 176.597656 C 312.746094 176.269531 312.777344 175.945312 312.839844 175.625 C 312.90625 175.304688 313 174.992188 313.121094 174.6875 C 313.246094 174.386719 313.398438 174.097656 313.578125 173.824219 C 313.757812 173.550781 313.960938 173.296875 314.191406 173.0625 C 314.421875 172.828125 314.671875 172.617188 314.941406 172.433594 C 315.210938 172.25 315.496094 172.089844 315.796875 171.960938 C 316.097656 171.832031 316.40625 171.730469 316.726562 171.664062 C 317.046875 171.59375 317.371094 171.554688 317.699219 171.550781 L 340.9375 171.550781 C 341.929688 171.550781 342.914062 171.644531 343.886719 171.839844 C 344.863281 172.035156 345.808594 172.320312 346.726562 172.699219 C 347.644531 173.082031 348.515625 173.546875 349.34375 174.101562 C 350.171875 174.652344 350.933594 175.277344 351.636719 175.980469 C 352.339844 176.683594 352.96875 177.449219 353.519531 178.273438 C 354.070312 179.101562 354.539062 179.972656 354.917969 180.890625 C 355.296875 181.808594 355.585938 182.757812 355.777344 183.730469 C 355.972656 184.707031 356.070312 185.691406 356.070312 186.683594 C 356.070312 187.675781 355.972656 188.660156 355.777344 189.636719 C 355.585938 190.609375 355.296875 191.558594 354.917969 192.476562 C 354.539062 193.394531 354.070312 194.265625 353.519531 195.089844 C 352.96875 195.917969 352.339844 196.683594 351.636719 197.386719 C 350.933594 198.085938 350.171875 198.714844 349.34375 199.265625 C 348.515625 199.820312 347.644531 200.285156 346.726562 200.664062 C 345.808594 201.046875 344.863281 201.332031 343.886719 201.527344 C 342.914062 201.722656 341.929688 201.816406 340.9375 201.816406 L 307.996094 201.816406 Z M 34.054688 171.550781 L 57.292969 171.550781 C 57.621094 171.554688 57.945312 171.59375 58.265625 171.664062 C 58.585938 171.730469 58.894531 171.832031 59.195312 171.960938 C 59.496094 172.089844 59.78125 172.25 60.050781 172.433594 C 60.320312 172.621094 60.570312 172.828125 60.800781 173.0625 C 61.027344 173.296875 61.234375 173.550781 61.414062 173.824219 C 61.59375 174.097656 61.746094 174.386719 61.867188 174.6875 C 61.992188 174.992188 62.085938 175.304688 62.148438 175.625 C 62.210938 175.945312 62.242188 176.269531 62.242188 176.597656 C 62.242188 176.925781 62.210938 177.25 62.148438 177.570312 C 62.085938 177.890625 61.992188 178.203125 61.867188 178.507812 C 61.746094 178.808594 61.59375 179.097656 61.414062 179.371094 C 61.234375 179.644531 61.027344 179.898438 60.800781 180.132812 C 60.570312 180.367188 60.320312 180.574219 60.050781 180.761719 C 59.78125 180.945312 59.496094 181.105469 59.195312 181.234375 C 58.894531 181.363281 58.585938 181.460938 58.265625 181.53125 C 57.945312 181.601562 57.621094 181.640625 57.292969 181.644531 L 43.484375 181.644531 L 43.484375 191.277344 C 48.609375 190.9375 60.292969 192.5 64.652344 189.226562 L 66.996094 201.816406 L 34.054688 201.816406 C 33.070312 201.804688 32.09375 201.699219 31.125 201.496094 C 30.160156 201.296875 29.222656 201.003906 28.316406 200.617188 C 27.40625 200.230469 26.546875 199.761719 25.730469 199.207031 C 24.914062 198.65625 24.15625 198.027344 23.464844 197.324219 C 22.769531 196.625 22.152344 195.863281 21.605469 195.039062 C 21.0625 194.214844 20.601562 193.347656 20.226562 192.4375 C 19.851562 191.523438 19.566406 190.582031 19.378906 189.613281 C 19.1875 188.648438 19.089844 187.671875 19.089844 186.683594 C 19.089844 185.695312 19.1875 184.71875 19.378906 183.75 C 19.566406 182.785156 19.851562 181.84375 20.226562 180.929688 C 20.601562 180.019531 21.0625 179.152344 21.605469 178.328125 C 22.152344 177.503906 22.769531 176.742188 23.464844 176.042969 C 24.15625 175.339844 24.914062 174.710938 25.730469 174.160156 C 26.546875 173.605469 27.40625 173.136719 28.316406 172.75 C 29.222656 172.363281 30.160156 172.070312 31.125 171.867188 C 32.09375 171.667969 33.070312 171.558594 34.054688 171.550781 Z M 34.054688 171.550781 " fill-opacity="1" fill-rule="nonzero"/></g><path fill="#ffffff" d="M 122.695312 124.632812 L 131.183594 124.632812 L 131.183594 130.140625 C 135.015625 207.652344 245.988281 202.421875 242.9375 124.632812 L 251.425781 124.632812 C 251.914062 124.628906 252.402344 124.59375 252.886719 124.527344 C 253.367188 124.460938 253.847656 124.367188 254.320312 124.242188 C 254.792969 124.117188 255.253906 123.964844 255.707031 123.78125 C 256.160156 123.601562 256.601562 123.390625 257.03125 123.15625 C 257.457031 122.917969 257.867188 122.65625 258.261719 122.367188 C 258.65625 122.082031 259.03125 121.769531 259.390625 121.433594 C 259.746094 121.101562 260.078125 120.746094 260.390625 120.371094 C 260.703125 119.992188 260.992188 119.601562 261.253906 119.1875 C 261.519531 118.777344 261.753906 118.351562 261.964844 117.910156 C 262.175781 117.46875 262.359375 117.015625 262.511719 116.554688 C 262.667969 116.089844 262.792969 115.617188 262.886719 115.140625 C 262.984375 114.660156 263.050781 114.175781 263.085938 113.691406 C 263.121094 113.203125 263.128906 112.714844 263.101562 112.226562 C 263.078125 111.738281 263.023438 111.253906 262.9375 110.773438 C 262.855469 110.292969 262.738281 109.820312 262.597656 109.351562 C 262.453125 108.882812 262.28125 108.429688 262.082031 107.984375 C 261.589844 106.160156 260.871094 104.425781 259.929688 102.789062 C 258.984375 101.152344 257.847656 99.664062 256.515625 98.324219 C 255.183594 96.984375 253.703125 95.835938 252.074219 94.882812 C 250.441406 93.925781 248.714844 93.199219 246.894531 92.695312 L 246.894531 83.042969 C 246.890625 81.636719 246.824219 80.230469 246.691406 78.828125 C 246.5625 77.429688 246.367188 76.035156 246.105469 74.652344 C 245.847656 73.269531 245.527344 71.902344 245.144531 70.546875 C 244.761719 69.195312 244.316406 67.859375 243.808594 66.546875 C 243.304688 65.234375 242.742188 63.945312 242.117188 62.683594 C 241.496094 61.421875 240.816406 60.191406 240.078125 58.992188 C 239.34375 57.792969 238.554688 56.628906 237.714844 55.5 C 236.871094 54.375 235.980469 53.285156 235.039062 52.238281 C 234.101562 51.191406 233.113281 50.191406 232.082031 49.234375 C 231.050781 48.28125 229.976562 47.371094 228.859375 46.515625 C 227.746094 45.65625 226.59375 44.851562 225.402344 44.097656 C 224.214844 43.34375 222.996094 42.644531 221.742188 42.003906 C 220.492188 41.363281 219.210938 40.78125 217.90625 40.253906 C 216.601562 39.730469 215.273438 39.265625 213.925781 38.863281 C 212.578125 38.457031 211.214844 38.117188 209.835938 37.835938 C 208.453125 37.558594 207.066406 37.34375 205.667969 37.191406 C 205.8125 36.5 205.917969 35.804688 205.984375 35.105469 C 206.050781 34.402344 206.078125 33.699219 206.066406 32.996094 C 206.054688 32.292969 206.003906 31.589844 205.914062 30.890625 C 205.824219 30.191406 205.699219 29.5 205.53125 28.816406 C 205.367188 28.132812 205.160156 27.460938 204.921875 26.796875 C 204.679688 26.136719 204.402344 25.488281 204.089844 24.859375 C 203.777344 24.226562 203.429688 23.617188 203.050781 23.023438 C 202.667969 22.429688 202.253906 21.859375 201.8125 21.316406 C 201.367188 20.769531 200.894531 20.246094 200.390625 19.753906 C 199.890625 19.257812 199.363281 18.796875 198.808594 18.359375 C 198.253906 17.925781 197.679688 17.519531 197.078125 17.148438 C 196.480469 16.777344 195.863281 16.441406 195.226562 16.140625 C 194.59375 15.835938 193.941406 15.570312 193.277344 15.339844 C 192.609375 15.109375 191.933594 14.917969 191.246094 14.761719 C 190.558594 14.605469 189.867188 14.488281 189.164062 14.410156 C 188.464844 14.332031 187.765625 14.292969 187.058594 14.292969 C 186.355469 14.292969 185.652344 14.332031 184.953125 14.410156 C 184.253906 14.488281 183.558594 14.605469 182.871094 14.761719 C 182.183594 14.914062 181.507812 15.109375 180.84375 15.339844 C 180.175781 15.570312 179.527344 15.835938 178.890625 16.136719 C 178.253906 16.441406 177.636719 16.777344 177.039062 17.148438 C 176.441406 17.519531 175.863281 17.921875 175.308594 18.359375 C 174.757812 18.792969 174.230469 19.257812 173.726562 19.753906 C 173.226562 20.246094 172.75 20.765625 172.308594 21.3125 C 171.863281 21.859375 171.449219 22.429688 171.070312 23.023438 C 170.6875 23.613281 170.339844 24.226562 170.027344 24.855469 C 169.714844 25.488281 169.4375 26.132812 169.199219 26.796875 C 168.957031 27.457031 168.753906 28.132812 168.585938 28.816406 C 168.417969 29.5 168.292969 30.191406 168.203125 30.890625 C 168.113281 31.589844 168.0625 32.289062 168.050781 32.996094 C 168.039062 33.699219 168.066406 34.402344 168.132812 35.101562 C 168.199219 35.804688 168.304688 36.5 168.449219 37.1875 C 140.097656 40.671875 124.613281 64.886719 127.265625 92.683594 C 125.441406 93.183594 123.710938 93.910156 122.074219 94.863281 C 120.4375 95.816406 118.953125 96.964844 117.617188 98.304688 C 116.28125 99.648438 115.140625 101.136719 114.195312 102.777344 C 113.25 104.417969 112.53125 106.152344 112.039062 107.980469 C 111.839844 108.425781 111.667969 108.882812 111.523438 109.347656 C 111.378906 109.816406 111.265625 110.289062 111.179688 110.773438 C 111.097656 111.253906 111.042969 111.738281 111.015625 112.226562 C 110.992188 112.714844 110.996094 113.199219 111.035156 113.6875 C 111.070312 114.175781 111.136719 114.660156 111.230469 115.136719 C 111.328125 115.617188 111.453125 116.089844 111.605469 116.550781 C 111.761719 117.015625 111.941406 117.46875 112.152344 117.910156 C 112.363281 118.351562 112.601562 118.777344 112.863281 119.1875 C 113.125 119.597656 113.414062 119.992188 113.726562 120.371094 C 114.039062 120.746094 114.375 121.101562 114.730469 121.433594 C 115.085938 121.769531 115.460938 122.078125 115.855469 122.367188 C 116.25 122.65625 116.664062 122.917969 117.089844 123.15625 C 117.515625 123.390625 117.957031 123.601562 118.410156 123.78125 C 118.863281 123.964844 119.328125 124.117188 119.800781 124.242188 C 120.273438 124.367188 120.75 124.460938 121.234375 124.527344 C 121.71875 124.59375 122.207031 124.628906 122.695312 124.632812 Z M 233.304688 130.140625 C 229.992188 194.890625 137.277344 189.550781 140.816406 124.632812 L 233.304688 124.632812 Z M 168.449219 46.925781 L 168.449219 64.574219 L 178.082031 64.574219 L 178.082031 32.765625 C 178.082031 32.175781 178.136719 31.589844 178.25 31.011719 C 178.363281 30.429688 178.535156 29.867188 178.757812 29.320312 C 178.984375 28.777344 179.257812 28.257812 179.585938 27.765625 C 179.914062 27.273438 180.285156 26.820312 180.703125 26.402344 C 181.121094 25.984375 181.574219 25.609375 182.0625 25.28125 C 182.554688 24.953125 183.070312 24.675781 183.617188 24.449219 C 184.164062 24.222656 184.726562 24.050781 185.304688 23.9375 C 185.882812 23.820312 186.46875 23.765625 187.058594 23.765625 C 187.648438 23.765625 188.234375 23.820312 188.8125 23.9375 C 189.390625 24.050781 189.953125 24.222656 190.5 24.449219 C 191.042969 24.675781 191.5625 24.953125 192.050781 25.28125 C 192.542969 25.609375 192.996094 25.984375 193.414062 26.402344 C 193.832031 26.820312 194.203125 27.273438 194.53125 27.765625 C 194.855469 28.257812 195.132812 28.777344 195.359375 29.320312 C 195.582031 29.867188 195.753906 30.429688 195.867188 31.011719 C 195.980469 31.589844 196.035156 32.175781 196.035156 32.765625 L 196.035156 64.574219 L 205.667969 64.574219 L 205.667969 46.929688 C 206.746094 47.078125 207.820312 47.273438 208.882812 47.515625 C 209.945312 47.761719 210.996094 48.050781 212.035156 48.390625 C 213.074219 48.730469 214.09375 49.113281 215.09375 49.542969 C 216.097656 49.972656 217.082031 50.445312 218.042969 50.960938 C 219 51.480469 219.9375 52.039062 220.847656 52.640625 C 221.757812 53.242188 222.640625 53.882812 223.492188 54.5625 C 224.347656 55.242188 225.167969 55.960938 225.957031 56.714844 C 226.746094 57.46875 227.5 58.253906 228.21875 59.078125 C 228.9375 59.898438 229.617188 60.75 230.257812 61.632812 C 230.902344 62.511719 231.503906 63.421875 232.0625 64.359375 C 232.625 65.292969 233.140625 66.253906 233.617188 67.234375 C 234.09375 68.21875 234.523438 69.21875 234.90625 70.242188 C 235.292969 71.261719 235.632812 72.296875 235.925781 73.347656 C 236.214844 74.402344 236.460938 75.460938 236.660156 76.535156 C 236.855469 77.609375 237.003906 78.6875 237.105469 79.777344 C 237.207031 80.863281 237.257812 81.949219 237.261719 83.042969 L 237.261719 92.199219 L 136.898438 92.199219 L 136.898438 83.042969 C 136.902344 81.953125 136.953125 80.863281 137.050781 79.777344 C 137.152344 78.691406 137.300781 77.613281 137.496094 76.539062 C 137.691406 75.464844 137.9375 74.40625 138.226562 73.355469 C 138.519531 72.304688 138.859375 71.265625 139.242188 70.246094 C 139.625 69.226562 140.054688 68.222656 140.527344 67.242188 C 141.003906 66.261719 141.519531 65.300781 142.078125 64.363281 C 142.640625 63.429688 143.238281 62.519531 143.882812 61.636719 C 144.523438 60.753906 145.203125 59.902344 145.917969 59.082031 C 146.636719 58.261719 147.390625 57.472656 148.175781 56.71875 C 148.964844 55.964844 149.785156 55.25 150.636719 54.570312 C 151.488281 53.886719 152.371094 53.246094 153.28125 52.644531 C 154.191406 52.042969 155.125 51.484375 156.085938 50.964844 C 157.042969 50.449219 158.027344 49.972656 159.027344 49.542969 C 160.03125 49.113281 161.050781 48.730469 162.085938 48.390625 C 163.121094 48.050781 164.171875 47.761719 165.234375 47.515625 C 166.296875 47.269531 167.371094 47.074219 168.449219 46.925781 Z M 120.789062 112.019531 C 122.742188 107.277344 125.207031 101.648438 131.257812 101.835938 L 242.863281 101.832031 C 248.855469 101.628906 251.421875 107.304688 253.332031 112.019531 C 253.414062 112.179688 253.472656 112.34375 253.507812 112.519531 C 253.546875 112.695312 253.558594 112.871094 253.550781 113.050781 C 253.542969 113.230469 253.511719 113.402344 253.457031 113.574219 C 253.402344 113.742188 253.328125 113.902344 253.230469 114.054688 C 253.132812 114.203125 253.019531 114.339844 252.890625 114.460938 C 252.757812 114.582031 252.613281 114.683594 252.453125 114.765625 C 252.296875 114.851562 252.128906 114.910156 251.953125 114.949219 C 251.78125 114.992188 251.605469 115.007812 251.425781 115 L 122.695312 115 C 122.515625 115.007812 122.339844 114.992188 122.164062 114.953125 C 121.988281 114.914062 121.820312 114.855469 121.664062 114.773438 C 121.503906 114.6875 121.359375 114.585938 121.226562 114.464844 C 121.09375 114.34375 120.980469 114.210938 120.882812 114.058594 C 120.785156 113.90625 120.710938 113.746094 120.65625 113.574219 C 120.601562 113.40625 120.570312 113.230469 120.5625 113.050781 C 120.554688 112.871094 120.570312 112.695312 120.605469 112.519531 C 120.644531 112.34375 120.707031 112.179688 120.789062 112.019531 Z M 120.789062 112.019531 " fill-opacity="1" fill-rule="nonzero"/><path fill="#ffffff" d="M 229.671875 264.839844 L 216.429688 264.839844 C 216.003906 264.835938 215.59375 264.917969 215.199219 265.082031 C 214.804688 265.246094 214.457031 265.476562 214.15625 265.777344 C 213.855469 266.078125 213.625 266.425781 213.460938 266.820312 C 213.296875 267.214844 213.21875 267.625 213.21875 268.050781 L 213.21875 286.027344 C 213.21875 286.453125 213.296875 286.859375 213.460938 287.253906 C 213.625 287.648438 213.855469 287.996094 214.15625 288.296875 C 214.457031 288.597656 214.804688 288.828125 215.199219 288.992188 C 215.59375 289.15625 216.003906 289.238281 216.429688 289.238281 L 249.007812 289.238281 C 249.433594 289.238281 249.84375 289.15625 250.238281 288.992188 C 250.628906 288.828125 250.976562 288.597656 251.277344 288.296875 C 251.578125 287.996094 251.8125 287.648438 251.976562 287.253906 C 252.136719 286.859375 252.21875 286.453125 252.21875 286.027344 L 252.21875 268.050781 C 252.21875 267.625 252.136719 267.214844 251.976562 266.820312 C 251.8125 266.425781 251.578125 266.078125 251.277344 265.777344 C 250.976562 265.476562 250.628906 265.246094 250.238281 265.082031 C 249.84375 264.917969 249.433594 264.835938 249.007812 264.839844 L 236.09375 264.839844 L 236.09375 225.863281 C 236.457031 225.480469 236.761719 225.054688 237.003906 224.585938 C 237.242188 224.113281 237.410156 223.621094 237.507812 223.097656 C 237.601562 222.578125 237.617188 222.054688 237.558594 221.53125 C 237.5 221.003906 237.363281 220.5 237.15625 220.015625 C 236.945312 219.527344 236.671875 219.082031 236.332031 218.679688 C 235.988281 218.273438 235.597656 217.925781 235.15625 217.636719 C 234.710938 217.347656 234.238281 217.128906 233.730469 216.980469 C 233.222656 216.832031 232.703125 216.761719 232.175781 216.765625 L 161.558594 216.765625 C 159.863281 216.769531 158.183594 216.894531 156.507812 217.148438 C 154.835938 217.402344 153.191406 217.777344 151.574219 218.277344 C 149.957031 218.773438 148.386719 219.390625 146.859375 220.121094 C 145.332031 220.851562 143.871094 221.691406 142.46875 222.644531 C 141.070312 223.59375 139.746094 224.640625 138.5 225.785156 C 137.257812 226.933594 136.101562 228.164062 135.042969 229.484375 C 133.980469 230.800781 133.023438 232.191406 132.167969 233.652344 C 131.3125 235.109375 130.570312 236.625 129.941406 238.199219 L 123.164062 255.183594 C 123.003906 255.59375 122.898438 256.019531 122.839844 256.457031 C 122.785156 256.894531 122.78125 257.332031 122.828125 257.769531 C 122.878906 258.207031 122.980469 258.632812 123.132812 259.046875 C 123.285156 259.460938 123.484375 259.851562 123.730469 260.214844 C 123.976562 260.582031 124.261719 260.910156 124.589844 261.207031 C 124.914062 261.503906 125.273438 261.757812 125.660156 261.96875 C 126.046875 262.175781 126.453125 262.339844 126.878906 262.449219 C 127.308594 262.5625 127.742188 262.621094 128.179688 262.628906 C 128.78125 262.628906 129.367188 262.53125 129.9375 262.335938 L 229.671875 228.757812 Z M 245.796875 282.816406 L 219.640625 282.816406 L 219.640625 271.261719 L 245.796875 271.261719 Z M 186.007812 223.1875 L 203.214844 223.1875 L 201.265625 229.84375 Z M 194.402344 233.859375 L 172.074219 241.375 L 173.449219 224.714844 Z M 167.132812 223.1875 L 165.914062 237.960938 L 154.300781 224.199219 C 158.53125 223.246094 162.804688 222.910156 167.132812 223.1875 Z M 162.976562 244.4375 L 150.429688 248.660156 L 151.550781 230.902344 Z M 145.265625 228.535156 L 144.058594 247.664062 L 135.261719 242.191406 C 136.195312 239.457031 137.511719 236.925781 139.21875 234.597656 C 140.925781 232.269531 142.941406 230.25 145.265625 228.535156 Z M 129.925781 255.566406 L 132.84375 248.25 L 139.449219 252.359375 Z M 208.136719 229.234375 L 209.910156 223.1875 L 226.09375 223.1875 Z M 208.136719 229.234375 " fill-opacity="1" fill-rule="nonzero"/><path fill="#ffffff" d="M 246.554688 294.769531 L 213.980469 294.769531 C 213.554688 294.769531 213.144531 294.851562 212.75 295.015625 C 212.355469 295.179688 212.007812 295.410156 211.707031 295.710938 C 211.40625 296.011719 211.175781 296.359375 211.011719 296.753906 C 210.847656 297.144531 210.769531 297.554688 210.769531 297.980469 L 210.769531 315.957031 C 210.769531 316.382812 210.847656 316.792969 211.011719 317.183594 C 211.175781 317.578125 211.40625 317.925781 211.707031 318.226562 C 212.007812 318.527344 212.355469 318.757812 212.75 318.921875 C 213.144531 319.085938 213.554688 319.167969 213.980469 319.167969 L 246.554688 319.167969 C 246.980469 319.167969 247.390625 319.085938 247.785156 318.921875 C 248.179688 318.761719 248.527344 318.527344 248.828125 318.226562 C 249.128906 317.925781 249.359375 317.578125 249.523438 317.183594 C 249.6875 316.792969 249.765625 316.382812 249.765625 315.957031 L 249.765625 297.980469 C 249.765625 297.554688 249.683594 297.144531 249.523438 296.753906 C 249.359375 296.359375 249.128906 296.011719 248.828125 295.710938 C 248.527344 295.410156 248.179688 295.179688 247.785156 295.015625 C 247.390625 294.851562 246.980469 294.769531 246.554688 294.769531 Z M 243.34375 312.746094 L 217.191406 312.746094 L 217.191406 301.191406 L 243.34375 301.191406 Z M 243.34375 312.746094 " fill-opacity="1" fill-rule="nonzero"/><path fill="#ffffff" d="M 258.691406 301.191406 L 265.007812 301.191406 L 265.007812 294.769531 L 255.480469 294.769531 C 255.054688 294.769531 254.644531 294.851562 254.25 295.015625 C 253.855469 295.179688 253.511719 295.410156 253.207031 295.710938 C 252.90625 296.011719 252.675781 296.359375 252.511719 296.753906 C 252.351562 297.144531 252.269531 297.554688 252.269531 297.980469 L 252.269531 315.957031 C 252.269531 316.382812 252.351562 316.792969 252.511719 317.183594 C 252.675781 317.578125 252.90625 317.925781 253.207031 318.226562 C 253.511719 318.527344 253.855469 318.757812 254.25 318.921875 C 254.644531 319.085938 255.054688 319.167969 255.480469 319.167969 L 274.265625 319.167969 L 274.265625 312.746094 L 258.691406 312.746094 Z M 258.691406 301.191406 " fill-opacity="1" fill-rule="nonzero"/><path fill="#ffffff" d="M 228.683594 321.691406 L 196.101562 321.691406 C 195.675781 321.691406 195.265625 321.773438 194.875 321.933594 C 194.480469 322.097656 194.132812 322.328125 193.832031 322.628906 C 193.53125 322.933594 193.300781 323.277344 193.136719 323.671875 C 192.972656 324.066406 192.890625 324.476562 192.890625 324.902344 L 192.890625 342.875 C 192.890625 343.300781 192.972656 343.710938 193.136719 344.105469 C 193.300781 344.496094 193.53125 344.84375 193.832031 345.144531 C 194.132812 345.449219 194.480469 345.679688 194.875 345.84375 C 195.265625 346.003906 195.675781 346.085938 196.101562 346.085938 L 228.683594 346.085938 C 229.109375 346.085938 229.519531 346.003906 229.910156 345.84375 C 230.304688 345.679688 230.652344 345.449219 230.953125 345.144531 C 231.253906 344.84375 231.488281 344.496094 231.648438 344.105469 C 231.8125 343.710938 231.894531 343.300781 231.894531 342.875 L 231.894531 324.902344 C 231.894531 324.476562 231.8125 324.066406 231.648438 323.671875 C 231.488281 323.277344 231.253906 322.933594 230.953125 322.628906 C 230.652344 322.328125 230.304688 322.097656 229.910156 321.933594 C 229.519531 321.773438 229.109375 321.691406 228.683594 321.691406 Z M 225.472656 339.664062 L 199.3125 339.664062 L 199.3125 328.113281 L 225.472656 328.113281 Z M 225.472656 339.664062 " fill-opacity="1" fill-rule="nonzero"/><path fill="#ffffff" d="M 270.183594 321.691406 L 237.605469 321.691406 C 237.179688 321.691406 236.769531 321.773438 236.378906 321.933594 C 235.984375 322.097656 235.636719 322.328125 235.335938 322.628906 C 235.035156 322.933594 234.800781 323.277344 234.640625 323.671875 C 234.476562 324.066406 234.394531 324.476562 234.394531 324.902344 L 234.394531 342.875 C 234.394531 343.300781 234.476562 343.710938 234.640625 344.105469 C 234.800781 344.496094 235.035156 344.84375 235.335938 345.144531 C 235.636719 345.449219 235.984375 345.679688 236.378906 345.84375 C 236.769531 346.003906 237.179688 346.085938 237.605469 346.085938 L 270.183594 346.085938 C 270.609375 346.085938 271.019531 346.003906 271.414062 345.84375 C 271.804688 345.679688 272.152344 345.449219 272.453125 345.144531 C 272.753906 344.84375 272.988281 344.496094 273.148438 344.105469 C 273.3125 343.710938 273.394531 343.300781 273.394531 342.875 L 273.394531 324.902344 C 273.394531 324.476562 273.3125 324.066406 273.148438 323.671875 C 272.988281 323.277344 272.753906 322.933594 272.453125 322.628906 C 272.152344 322.328125 271.804688 322.097656 271.414062 321.933594 C 271.019531 321.773438 270.609375 321.691406 270.183594 321.691406 Z M 266.972656 339.664062 L 240.816406 339.664062 L 240.816406 328.113281 L 266.972656 328.113281 Z M 266.972656 339.664062 " fill-opacity="1" fill-rule="nonzero"/><path fill="#ffffff" d="M 180.539062 317.089844 C 180.164062 316.8125 176.425781 263.5625 176.277344 263.1875 C 176.257812 262.945312 176.210938 262.710938 176.136719 262.476562 C 176.066406 262.246094 175.964844 262.027344 175.84375 261.816406 C 175.71875 261.605469 175.574219 261.414062 175.410156 261.238281 C 175.242188 261.0625 175.058594 260.90625 174.855469 260.769531 C 174.652344 260.636719 174.4375 260.527344 174.210938 260.441406 C 173.984375 260.355469 173.75 260.292969 173.511719 260.261719 C 173.269531 260.230469 173.027344 260.222656 172.785156 260.246094 C 172.542969 260.265625 172.308594 260.316406 172.078125 260.390625 L 154.839844 266.019531 C 154.230469 266.21875 153.722656 266.570312 153.320312 267.074219 C 152.921875 267.582031 152.695312 268.152344 152.640625 268.796875 L 146.007812 345.140625 L 152.40625 345.699219 L 155.582031 309.113281 L 172.289062 318.449219 L 160.046875 331.992188 L 164.8125 336.300781 L 174.714844 325.347656 L 176.171875 345.648438 L 182.574219 345.1875 L 180.484375 317.988281 C 180.546875 317.691406 180.566406 317.394531 180.539062 317.089844 Z M 170.542969 272.125 L 164.757812 269.535156 L 170.195312 267.761719 Z M 158.648438 273.839844 L 169.050781 278.496094 L 156.929688 293.59375 Z M 157.675781 302.925781 L 171.609375 285.566406 L 173.699219 311.878906 Z M 157.675781 302.925781 " fill-opacity="1" fill-rule="nonzero"/></svg>